<svg width="92" height="92" viewBox="0 0 92 92" fill="none" xmlns="http://www.w3.org/2000/svg">
<circle cx="46" cy="46" r="45.5" stroke="white"/>
<path d="M72.9916 48.1072H70.7873V22.7422C70.7873 22.5795 70.7227 22.4235 70.6077 22.3085C70.4926 22.1935 70.3366 22.1289 70.174 22.1289H26.1943V20.1128C26.1943 19.9502 26.1297 19.7942 26.0146 19.6792C25.8996 19.5641 25.7436 19.4995 25.581 19.4995H22.1303C21.9677 19.4995 21.8117 19.5641 21.6966 19.6792C21.5816 19.7942 21.517 19.9502 21.517 20.1128V22.1289H19.0085C18.8458 22.1289 18.6898 22.1935 18.5748 22.3085C18.4598 22.4235 18.3951 22.5795 18.3951 22.7422V55.0428C18.3951 55.2055 18.4598 55.3615 18.5748 55.4765C18.6898 55.5915 18.8458 55.6561 19.0085 55.6561H34.0627V60.3175L25.76 71.5212C25.6917 71.6123 25.6501 71.7207 25.6399 71.8341C25.6296 71.9476 25.6512 72.0616 25.7021 72.1635C25.7531 72.2654 25.8314 72.3511 25.9283 72.411C26.0252 72.4708 26.1368 72.5026 26.2507 72.5026H30.4447C30.8126 72.5017 31.1753 72.415 31.5038 72.2495C31.8324 72.0839 32.1178 71.844 32.3374 71.5488L40.0568 61.1307H42.8512V71.8868C42.8512 72.0494 42.9158 72.2054 43.0308 72.3205C43.1459 72.4355 43.3019 72.5001 43.4645 72.5001H48.5356C48.6982 72.5001 48.8542 72.4355 48.9693 72.3205C49.0843 72.2054 49.1489 72.0494 49.1489 71.8868V61.1307H51.9432L59.659 71.5464C59.8786 71.8415 60.164 72.0814 60.4926 72.247C60.8212 72.4126 61.1838 72.4992 61.5517 72.5001H65.7457C65.8596 72.5001 65.9713 72.4684 66.0682 72.4085C66.165 72.3486 66.2433 72.2629 66.2943 72.1611C66.3452 72.0592 66.3668 71.9451 66.3566 71.8317C66.3463 71.7182 66.3047 71.6099 66.2364 71.5188L57.9374 60.315V55.6537H70.174C70.3366 55.6537 70.4926 55.5891 70.6077 55.474C70.7227 55.359 70.7873 55.203 70.7873 55.0403V52.7839H72.9916C73.1543 52.7839 73.3103 52.7193 73.4253 52.6042C73.5403 52.4892 73.605 52.3332 73.605 52.1706V48.7206C73.605 48.5579 73.5403 48.4019 73.4253 48.2869C73.3103 48.1718 73.1543 48.1072 72.9916 48.1072ZM69.5606 23.3555V48.1072H26.1943V23.3555H69.5606ZM19.6218 49.3339H21.517V51.5572H19.6218V49.3339ZM21.517 23.3555V48.1072H19.6218V23.3555H21.517ZM19.6218 52.7839H21.517V54.4295H19.6218V52.7839ZM22.7437 20.7262H24.9676V54.4295H22.7437V20.7262ZM31.3555 70.8165C31.2502 70.9579 31.1134 71.0729 30.9559 71.1522C30.7985 71.2315 30.6247 71.273 30.4484 71.2734H27.4725L34.9852 61.1307H38.5303L31.3555 70.8165ZM47.9222 71.2734H44.0779V61.1307H47.9222V71.2734ZM61.5517 71.2734C61.3754 71.273 61.2016 71.2315 61.0442 71.1522C60.8867 71.0729 60.7499 70.9579 60.6446 70.8165L53.4698 61.1307H57.0149L64.5276 71.2734H61.5517ZM56.7107 59.9041H35.2894V55.6561H56.7107V59.9041ZM69.5606 54.4295H26.1943V52.7839H69.5606V54.4295ZM72.3783 51.5572H26.1943V49.3339H72.3783V51.5572ZM36.621 37.2015L37.6759 36.4398V42.9166C37.6777 43.9408 38.0853 44.9226 38.8096 45.6469C39.5339 46.3711 40.5156 46.7788 41.5399 46.7806H54.2101C55.2349 46.7796 56.2175 46.3723 56.9424 45.648C57.6673 44.9236 58.0754 43.9414 58.0772 42.9166V36.4392L59.1321 37.2015C59.3284 37.3432 59.5506 37.4448 59.7861 37.5005C60.0216 37.5563 60.2658 37.5651 60.5047 37.5265C60.7436 37.4879 60.9726 37.4026 61.1786 37.2755C61.3845 37.1484 61.5634 36.9819 61.7051 36.7857C61.8467 36.5895 61.9483 36.3672 62.0041 36.1317C62.0598 35.8962 62.0686 35.652 62.03 35.4131C61.9914 35.1742 61.9061 34.9452 61.779 34.7393C61.6519 34.5333 61.4855 34.3544 61.2892 34.2128L48.2363 24.7944C48.1318 24.7191 48.0063 24.6785 47.8775 24.6785C47.7487 24.6785 47.6231 24.7191 47.5187 24.7944L34.4651 34.2128C34.0688 34.4989 33.8023 34.9307 33.7244 35.4133C33.6465 35.8959 33.7634 36.3897 34.0496 36.786C34.3357 37.1823 34.7675 37.4488 35.2501 37.5267C35.7327 37.6046 36.2265 37.4877 36.6228 37.2015H36.621ZM45.9553 45.5564V40.7024H49.8027V45.5564H45.9553ZM56.8505 35.5541V42.9141C56.8491 43.6131 56.5707 44.2831 56.0765 44.7774C55.5822 45.2717 54.9122 45.55 54.2132 45.5515H51.0294V40.0891C51.0294 39.9264 50.9648 39.7704 50.8497 39.6554C50.7347 39.5404 50.5787 39.4758 50.416 39.4758H45.3419C45.1793 39.4758 45.0233 39.5404 44.9083 39.6554C44.7932 39.7704 44.7286 39.9264 44.7286 40.0891V45.5564H41.5442C40.8452 45.5549 40.1752 45.2766 39.6809 44.7823C39.1866 44.288 38.9083 43.618 38.9068 42.919V35.559L47.8775 29.0718L56.8505 35.5541ZM35.1827 35.2051L47.8787 26.0456L60.5716 35.2051C60.6373 35.2522 60.6931 35.3118 60.7357 35.3806C60.7783 35.4493 60.8069 35.5257 60.8198 35.6055C60.8327 35.6853 60.8298 35.7669 60.8111 35.8455C60.7924 35.9242 60.7583 35.9984 60.7108 36.0638C60.6149 36.1955 60.4709 36.2839 60.3101 36.3099C60.1492 36.3359 59.9847 36.2972 59.8522 36.2024L48.2363 27.8188C48.1318 27.7434 48.0063 27.7029 47.8775 27.7029C47.7487 27.7029 47.6231 27.7434 47.5187 27.8188L35.9046 36.2073C35.772 36.3031 35.6068 36.3422 35.4454 36.3161C35.284 36.2901 35.1395 36.201 35.0438 36.0684C34.948 35.9358 34.9089 35.7707 34.9349 35.6092C34.961 35.4478 35.0501 35.3033 35.1827 35.2076V35.2051Z" fill="#F8F8F8"/>
</svg>
