<svg width="60" height="60" viewBox="0 0 60 60" fill="none" xmlns="http://www.w3.org/2000/svg">
<circle cx="30" cy="30" r="29.5" stroke="white"/>
<path fill-rule="evenodd" clip-rule="evenodd" d="M31.2481 36.9207H40.2431V37.7038H31.2481V36.9207ZM32.2905 32.1097H39.184V36.0472H32.2905V32.1097ZM30.8117 38.5773H40.6795C40.7369 38.5774 40.7937 38.5661 40.8467 38.5441C40.8997 38.5222 40.9478 38.49 40.9884 38.4494C41.0289 38.4088 41.0611 38.3607 41.083 38.3077C41.105 38.2547 41.1162 38.1979 41.1162 38.1405V36.4842C41.1162 36.4269 41.105 36.3701 41.083 36.3171C41.0611 36.2641 41.0289 36.2159 40.9884 36.1754C40.9478 36.1348 40.8997 36.1026 40.8467 36.0807C40.7937 36.0587 40.7369 36.0474 40.6795 36.0474H40.0575V31.6728C40.0574 31.5571 40.0113 31.4461 39.9294 31.3642C39.8475 31.2824 39.7365 31.2364 39.6207 31.2364H31.8535C31.7961 31.2364 31.7394 31.2477 31.6864 31.2696C31.6334 31.2915 31.5853 31.3237 31.5447 31.3642C31.5042 31.4047 31.472 31.4528 31.45 31.5058C31.4281 31.5587 31.4168 31.6155 31.4168 31.6728V36.0474H30.8117C30.6958 36.0475 30.5848 36.0935 30.5029 36.1754C30.421 36.2573 30.375 36.3684 30.375 36.4842V38.1405C30.375 38.2564 30.421 38.3674 30.5029 38.4494C30.5848 38.5313 30.6958 38.5773 30.8117 38.5773ZM44.816 46.0097C44.8157 46.0158 44.8131 46.0214 44.8088 46.0257C44.8045 46.0299 44.7988 46.0324 44.7927 46.0327H16.2076C16.2015 46.0324 16.1958 46.0299 16.1915 46.0257C16.1872 46.0214 16.1846 46.0158 16.1843 46.0097V44.2717C16.1846 44.2657 16.1872 44.26 16.1915 44.2558C16.1958 44.2515 16.2015 44.249 16.2076 44.2488H44.7927C44.7988 44.249 44.8045 44.2515 44.8088 44.2558C44.8131 44.26 44.8157 44.2657 44.816 44.2717V46.0097ZM21.1783 43.3752V31.9902H27.8987V43.3752H21.1783ZM18.3444 26.9883V43.3752H20.3051V31.5536C20.3051 31.4379 20.3511 31.3269 20.4329 31.245C20.5148 31.1632 20.6258 31.1172 20.7415 31.1171H28.3354C28.4512 31.1172 28.5622 31.1632 28.644 31.245C28.7258 31.3269 28.7718 31.4379 28.7718 31.5536V43.3752H42.6556V26.9883C42.3826 27.0319 42.1066 27.0537 41.8302 27.0536C40.1764 27.0536 38.7429 26.2854 38.0535 25.1708C37.364 26.2854 35.9305 27.0536 34.2767 27.0536C32.623 27.0536 31.1894 26.2854 30.4999 25.1708C29.8108 26.2854 28.3768 27.0536 26.7232 27.0536C25.0695 27.0536 23.6358 26.2854 22.9464 25.1708C22.2574 26.2854 20.8238 27.0536 19.1697 27.0536C18.8933 27.0536 18.6173 27.0318 18.3444 26.9883ZM15.882 24.1122H22.4581C22.1815 25.2858 20.8129 26.1804 19.1697 26.1804C18.788 26.1811 18.408 26.1313 18.0395 26.0324C17.0761 25.7199 16.1329 25.1779 15.8818 24.1122H15.882ZM18.7782 16.5033H23.958L22.5896 23.239H16.0419L18.7782 16.5033ZM18.5625 14.9672H42.4375C42.8777 14.9672 42.8778 15.6296 42.4375 15.6296H18.5625C18.1222 15.6296 18.1223 14.9672 18.5625 14.9672ZM38.4104 23.2387L37.0419 16.5033H42.222L44.958 23.239L38.4104 23.2387ZM37.5649 24.1122C37.2885 25.2858 35.9195 26.1804 34.2768 26.1804C32.6341 26.1804 31.265 25.2858 30.9887 24.1122H37.5649ZM30.0112 24.1122C29.7348 25.2858 28.3662 26.1804 26.7231 26.1804C25.08 26.1804 23.7117 25.2858 23.435 24.1122H30.0112ZM36.151 16.5033H30.9368V23.239H37.5193L36.151 16.5033ZM30.0631 16.5033H24.8489L23.481 23.239H30.0631V16.5033ZM41.8301 26.1804C40.1869 26.1804 38.8183 25.2858 38.542 24.1122H45.1182C44.8421 25.2858 43.4733 26.1804 41.8301 26.1804ZM44.7927 43.3752H43.5287V26.7659C45.0082 26.2409 46.0432 25.0534 46.0432 23.676C46.0428 23.6172 46.031 23.559 46.0086 23.5046L43.0909 16.3223C44.0457 15.716 43.6914 14.0938 42.4375 14.0938H18.5625C17.3088 14.0938 16.9543 15.7152 17.9091 16.3223L14.9917 23.5044C14.9692 23.5587 14.9573 23.6169 14.9567 23.6758C14.9567 25.0534 15.9921 26.2409 17.4712 26.7656V43.3752H16.2076C15.9699 43.3755 15.742 43.47 15.5739 43.6381C15.4058 43.8062 15.3113 44.034 15.311 44.2717V46.0097C15.3114 46.2474 15.4059 46.4752 15.574 46.6433C15.742 46.8114 15.9699 46.9059 16.2076 46.9062H44.7927C45.0304 46.906 45.2583 46.8114 45.4264 46.6433C45.5945 46.4753 45.6891 46.2474 45.6894 46.0097V44.2717C45.6891 44.034 45.5946 43.8061 45.4265 43.638C45.2584 43.47 45.0304 43.3754 44.7927 43.3752Z" fill="white"/>
</svg>
