<svg width="60" height="60" viewBox="0 0 60 60" fill="none" xmlns="http://www.w3.org/2000/svg">
<circle cx="30" cy="30" r="29.5" stroke="white"/>
<path d="M43.124 24.1527C42.8488 23.9827 42.5055 23.9672 42.2159 24.1118L31.0159 29.7118C30.6997 29.87 30.5 30.1932 30.5 30.5467V43.6134C30.5 43.9368 30.6675 44.2373 30.9426 44.4074C31.0926 44.5 31.2627 44.5467 31.4333 44.5467C31.576 44.5467 31.7189 44.514 31.8508 44.4481L43.0508 38.8481C43.3669 38.69 43.5667 38.3669 43.5667 38.0134V24.9467C43.5667 24.6232 43.3991 24.3228 43.124 24.1527ZM41.7 37.4366L32.3667 42.1032V31.1236L41.7 26.4569V37.4366Z" fill="white"/>
<path d="M42.6327 22.1154C42.6206 21.7482 42.3938 21.4223 42.0537 21.2828L30.4337 16.5228C30.199 16.4268 29.9352 16.4302 29.7029 16.5328L18.9229 21.2928C18.5956 21.4373 18.3797 21.7563 18.3671 22.1139C18.3545 22.4714 18.5476 22.8048 18.864 22.9718L29.644 28.6652C29.7803 28.737 29.93 28.7732 30.0799 28.7732C30.2203 28.7732 30.3609 28.7416 30.4905 28.678L42.1105 22.9847C42.4407 22.8231 42.6451 22.4828 42.6327 22.1154ZM30.0959 26.7928L21.4407 22.2217L30.0938 18.4008L39.4236 22.2227L30.0959 26.7928Z" fill="white"/>
<path d="M29.0803 29.7271L18.8136 24.1271C18.5245 23.9696 18.1738 23.9759 17.8902 24.144C17.6069 24.3121 17.4333 24.6172 17.4333 24.9466V38.0132C17.4333 38.3548 17.6199 38.669 17.9197 38.8326L28.1864 44.4326C28.3258 44.5085 28.4797 44.5466 28.6333 44.5466C28.7983 44.5466 28.963 44.5028 29.1098 44.4158C29.3931 44.2477 29.5667 43.9426 29.5667 43.6132V30.5466C29.5667 30.205 29.3801 29.8908 29.0803 29.7271ZM20.1087 37.9003L27.7 32.3794V34.9078L22.0953 38.9839L20.1087 37.9003ZM19.3 33.6522L24.9048 29.5759L26.8913 30.6595L19.3 36.1804V33.6522ZM23.0913 28.5868L19.3 31.3441V26.5188L23.0913 28.5868ZM23.9088 39.973L27.7 37.2158V42.041L23.9088 39.973Z" fill="white"/>
</svg>
