<svg width="60" height="60" viewBox="0 0 60 60" fill="none" xmlns="http://www.w3.org/2000/svg">
<circle cx="30" cy="30" r="29.5" stroke="white"/>
<g clip-path="url(#clip0_1_4659)">
<path d="M46.22 29.3304C46.4083 28.6535 46.4058 27.9378 46.2128 27.2622C46.0198 26.5866 45.6437 25.9776 45.1263 25.5023C45.295 24.8958 45.3109 24.257 45.1725 23.6429C45.0341 23.0288 44.7458 22.4585 44.3333 21.983C43.826 21.3977 43.1534 20.9796 42.404 20.7838C42.2695 20.2638 42.0268 19.7781 41.6917 19.3583C41.3567 18.9385 40.9368 18.5941 40.4596 18.3477C39.9824 18.1012 39.4585 17.9582 38.9223 17.928C38.386 17.8978 37.8494 17.9811 37.3476 18.1725C37.0783 17.4825 36.6147 16.8854 36.0131 16.4534C35.4114 16.0214 34.6975 15.7731 33.9576 15.7384C33.6483 15.0829 33.159 14.5289 32.5468 14.1409C31.9347 13.7529 31.2248 13.5469 30.5 13.5469C29.7752 13.5469 29.0654 13.7529 28.4532 14.1409C27.841 14.5289 27.3517 15.0829 27.0424 15.7384C26.3026 15.7731 25.5887 16.0215 24.9872 16.4534C24.3856 16.8854 23.9221 17.4824 23.6527 18.1723C23.1508 17.9817 22.6144 17.899 22.0784 17.9295C21.5423 17.9601 21.0188 18.1032 20.5417 18.3495C20.0647 18.5959 19.6449 18.94 19.3097 19.3594C18.9745 19.7788 18.7314 20.2641 18.5963 20.7837C17.777 20.997 17.0517 21.476 16.5338 22.1456C16.0159 22.8153 15.7348 23.6378 15.7344 24.4844C15.7344 24.8284 15.7813 25.1709 15.8738 25.5023C15.3563 25.9776 14.9803 26.5866 14.7873 27.2622C14.5943 27.9378 14.5918 28.6535 14.78 29.3304C14.3898 29.6869 14.0784 30.121 13.8661 30.605C13.6537 31.089 13.545 31.6121 13.5469 32.1406C13.5469 32.963 13.8117 33.7636 14.3021 34.4238C14.7926 35.0839 15.4826 35.5686 16.27 35.806C17.0575 36.0434 17.9004 36.0209 18.674 35.7418C19.4476 35.4627 20.1108 34.9419 20.5654 34.2565C21.2555 34.7985 22.0662 35.166 22.9287 35.328C23.7911 35.49 24.6799 35.4417 25.5197 35.1872L26.6211 36.7291C27.3676 37.7702 27.7679 39.0196 27.7656 40.3007C27.7628 41.6297 27.3319 42.9224 26.5366 43.9873L24.5938 46.5781C24.5328 46.6594 24.4957 46.756 24.4866 46.8571C24.4775 46.9583 24.4967 47.06 24.5421 47.1508C24.5876 47.2417 24.6574 47.3181 24.7438 47.3714C24.8302 47.4248 24.9297 47.4531 25.0313 47.4531H28.8594C28.929 47.4531 28.9979 47.4398 29.0625 47.414L31.5297 46.4271L32.9311 47.3612C33.0209 47.4211 33.1264 47.4531 33.2344 47.4531H35.9688C36.0703 47.4531 36.1699 47.4248 36.2563 47.3714C36.3427 47.3181 36.4125 47.2417 36.4579 47.1508C36.5033 47.06 36.5226 46.9583 36.5134 46.8571C36.5043 46.756 36.4672 46.6594 36.4063 46.5781L34.4634 43.9873C33.6682 42.9224 33.2372 41.6297 33.2344 40.3007C33.2321 39.0196 33.6325 37.7702 34.3789 36.7291L35.4803 35.1872C36.3201 35.4417 37.2089 35.49 38.0714 35.328C38.9338 35.166 39.7445 34.7985 40.4347 34.2565C40.7335 34.7081 41.1248 35.0911 41.5826 35.3803C42.0404 35.6694 42.5544 35.8582 43.0906 35.9339C43.6268 36.0097 44.1729 35.9709 44.693 35.82C45.213 35.669 45.6951 35.4095 46.1074 35.0584C46.5197 34.7073 46.8528 34.2728 47.0847 33.7835C47.3165 33.2941 47.442 32.7612 47.4526 32.2198C47.4633 31.6784 47.3589 31.1409 47.1464 30.6428C46.9339 30.1447 46.6182 29.6974 46.22 29.3304ZM33.489 36.0934C32.6096 37.3198 32.1379 38.7916 32.1406 40.3007C32.144 41.8663 32.6516 43.3891 33.5884 44.6435L34.875 46.3594H33.4L31.8972 45.3575C31.8233 45.3083 31.7387 45.2778 31.6504 45.2686C31.5622 45.2594 31.473 45.2718 31.3907 45.3047L28.7541 46.3594H26.125L27.4117 44.6435C28.3484 43.3891 28.8561 41.8663 28.8594 40.3007C28.8621 38.7916 28.3904 37.3198 27.5111 36.0934L26.554 34.7535C27.0208 34.4986 27.448 34.177 27.822 33.7989C27.8886 33.8262 27.9556 33.8521 28.0227 33.8774L30.0112 37.8543C30.0566 37.9451 30.1264 38.0215 30.2128 38.0749C30.2992 38.1283 30.3987 38.1565 30.5003 38.1565C30.6018 38.1565 30.7014 38.1283 30.7878 38.0749C30.8742 38.0215 30.944 37.9451 30.9894 37.8543L32.9776 33.8769C33.0447 33.8517 33.1116 33.8259 33.1782 33.7985C33.5523 34.1766 33.9794 34.4982 34.4462 34.7532L33.489 36.0934ZM29.4299 34.2461C30.1392 34.3551 30.8609 34.3551 31.5701 34.2461L30.5 36.3865L29.4299 34.2461ZM43.625 34.875C43.082 34.876 42.551 34.7148 42.1002 34.412C41.6493 34.1092 41.2993 33.6786 41.0948 33.1755C41.0604 33.0915 41.0057 33.0174 40.9355 32.9599C40.8653 32.9024 40.7819 32.8632 40.6928 32.8459C40.6037 32.8287 40.5117 32.8338 40.4252 32.861C40.3386 32.8881 40.2601 32.9364 40.1968 33.0015C39.7727 33.4388 39.2617 33.7826 38.6967 34.0107C38.1318 34.2388 37.5253 34.3461 36.9164 34.3257C36.3075 34.3053 35.7096 34.1578 35.1611 33.8925C34.6126 33.6272 34.1258 33.2501 33.7318 32.7853C33.6537 32.6936 33.5475 32.6302 33.4296 32.605C33.3118 32.5799 33.189 32.5943 33.0802 32.6461C32.2751 33.0333 31.3933 33.2344 30.5 33.2344C29.6067 33.2344 28.7248 33.0333 27.9198 32.6461C27.811 32.5943 27.6882 32.5799 27.5704 32.605C27.4525 32.6302 27.3463 32.6936 27.2682 32.7853C26.8742 33.2501 26.3873 33.6272 25.8389 33.8925C25.2904 34.1578 24.6925 34.3053 24.0836 34.3257C23.4747 34.3461 22.8682 34.2388 22.3033 34.0107C21.7383 33.7826 21.2273 33.4388 20.8032 33.0015C20.7399 32.9364 20.6614 32.8881 20.5748 32.861C20.4882 32.8338 20.3962 32.8287 20.3072 32.8459C20.2181 32.8632 20.1347 32.9024 20.0645 32.9599C19.9943 33.0174 19.9395 33.0915 19.9051 33.1755C19.7461 33.5661 19.4988 33.9145 19.1826 34.1936C18.8664 34.4727 18.4899 34.6749 18.0827 34.7842C17.6754 34.8936 17.2483 34.9072 16.8348 34.8241C16.4214 34.7409 16.0328 34.5632 15.6995 34.3048C15.3661 34.0465 15.0971 33.7145 14.9134 33.3349C14.7298 32.9552 14.6365 32.5382 14.6408 32.1165C14.6451 31.6948 14.7469 31.2798 14.9383 30.9041C15.1297 30.5283 15.4055 30.2019 15.744 29.9504C15.8402 29.8786 15.9101 29.7773 15.9429 29.6619C15.9758 29.5465 15.9698 29.4235 15.9259 29.3119C15.7047 28.7541 15.6742 28.1389 15.8392 27.5619C16.0041 26.985 16.3552 26.4789 16.8378 26.1223C16.9339 26.0505 17.0038 25.9491 17.0367 25.8338C17.0695 25.7184 17.0635 25.5954 17.0196 25.4838C16.8688 25.1029 16.8057 24.6929 16.8352 24.2843C16.8647 23.8756 16.9859 23.4789 17.1898 23.1236C17.3937 22.7683 17.6752 22.4635 18.0131 22.232C18.3511 22.0005 18.7369 21.8481 19.1419 21.7862C19.2567 21.7685 19.3629 21.7146 19.445 21.6325C19.5271 21.5503 19.581 21.4442 19.5988 21.3294C19.6666 20.8855 19.8431 20.4652 20.1125 20.1059C20.3819 19.7467 20.7359 19.4596 21.143 19.2701C21.5502 19.0806 21.9978 18.9947 22.4462 19.0199C22.8945 19.0452 23.3297 19.1808 23.713 19.4148C23.7884 19.4607 23.8739 19.4876 23.9621 19.4932C24.0502 19.4989 24.1384 19.4831 24.2192 19.4472C24.2999 19.4114 24.3707 19.3565 24.4256 19.2873C24.4805 19.2181 24.5178 19.1366 24.5343 19.0498C24.6536 18.4251 24.9868 17.8615 25.4768 17.456C25.9668 17.0505 26.5828 16.8284 27.2188 16.8281C27.2513 16.8281 27.2831 16.8307 27.3151 16.8329L27.375 16.8367C27.4934 16.8431 27.6107 16.811 27.7092 16.7452C27.8078 16.6794 27.8824 16.5834 27.9219 16.4716C28.1085 15.9367 28.4569 15.473 28.9188 15.1449C29.3807 14.8168 29.9333 14.6406 30.4998 14.6406C31.0664 14.6406 31.6189 14.8168 32.0808 15.1449C32.5427 15.473 32.8911 15.9367 33.0777 16.4716C33.1169 16.5836 33.1914 16.6798 33.2901 16.7457C33.3887 16.8115 33.5062 16.8435 33.6246 16.8367L33.6843 16.8329C33.7163 16.8307 33.7483 16.8281 33.7808 16.8281C34.4168 16.8285 35.0328 17.0505 35.5227 17.456C36.0127 17.8615 36.346 18.4251 36.4652 19.0498C36.4731 19.0911 36.4858 19.1314 36.5031 19.1698C36.4636 19.4432 36.3222 19.6915 36.1071 19.8648C35.8921 20.0381 35.6194 20.1236 35.3439 20.104C35.0684 20.0845 34.8105 19.9614 34.6221 19.7595C34.4337 19.5576 34.3286 19.2918 34.3281 19.0156H33.2344C33.2348 19.5749 33.4494 20.1128 33.8341 20.5188C34.2188 20.9247 34.7444 21.1679 35.3028 21.1984C35.8613 21.2288 36.4102 21.0442 36.8368 20.6824C37.2633 20.3207 37.5351 19.8093 37.5963 19.2534C37.9792 19.0819 38.3966 19.0013 38.8159 19.0177C39.2352 19.0342 39.645 19.1473 40.0133 19.3483C40.3816 19.5492 40.6986 19.8326 40.9393 20.1763C41.1801 20.5199 41.3382 20.9146 41.4012 21.3294C41.419 21.4442 41.4728 21.5503 41.555 21.6325C41.6371 21.7146 41.7433 21.7685 41.8581 21.7862C42.2631 21.8481 42.6489 22.0004 42.9869 22.232C43.3249 22.4635 43.6063 22.7683 43.8103 23.1236C44.0142 23.4789 44.1354 23.8756 44.1649 24.2842C44.1944 24.6929 44.1313 25.1029 43.9805 25.4838C43.9366 25.5954 43.9306 25.7184 43.9634 25.8338C43.9963 25.9491 44.0662 26.0505 44.1623 26.1223C44.6449 26.4789 44.996 26.985 45.1609 27.5619C45.3259 28.1389 45.2954 28.7541 45.0742 29.3119C45.0303 29.4235 45.0243 29.5465 45.0572 29.6619C45.0901 29.7773 45.1599 29.8786 45.2561 29.9504C45.7175 30.2929 46.0591 30.7723 46.2324 31.3202C46.4056 31.8682 46.4016 32.4568 46.2209 33.0023C46.0402 33.5479 45.6921 34.0225 45.226 34.3587C44.7599 34.695 44.1997 34.8756 43.625 34.875Z" fill="white"/>
<path d="M37.6094 28.3125C37.1744 28.312 36.7574 28.139 36.4498 27.8314C36.1423 27.5238 35.9693 27.1068 35.9688 26.6719C35.9688 26.5268 35.9111 26.3877 35.8086 26.2852C35.706 26.1826 35.5669 26.125 35.4219 26.125C35.2768 26.125 35.1377 26.1826 35.0352 26.2852C34.9326 26.3877 34.875 26.5268 34.875 26.6719C34.875 26.962 34.7598 27.2402 34.5546 27.4453C34.3495 27.6504 34.0713 27.7656 33.7813 27.7656C33.4912 27.7656 33.213 27.6504 33.0079 27.4453C32.8027 27.2402 32.6875 26.962 32.6875 26.6719H31.5938C31.5935 27.1065 31.7229 27.5314 31.9653 27.8922C32.2076 28.253 32.552 28.5333 32.9545 28.6975C33.3569 28.8616 33.7992 28.9021 34.2248 28.8137C34.6503 28.7254 35.0399 28.5122 35.3437 28.2013C35.6712 28.6867 36.1458 29.0541 36.6978 29.2495C37.2497 29.4449 37.8498 29.4579 38.4097 29.2866C38.9695 29.1154 39.4596 28.7689 39.8078 28.2982C40.156 27.8274 40.3439 27.2574 40.3438 26.6719H39.25C39.2495 27.1068 39.0765 27.5238 38.7689 27.8314C38.4613 28.139 38.0443 28.312 37.6094 28.3125Z" fill="white"/>
<path d="M25.5781 26.125C25.1432 26.1245 24.7262 25.9515 24.4186 25.6439C24.111 25.3363 23.938 24.9193 23.9375 24.4844H22.8438C22.8438 25.2096 23.1318 25.9051 23.6446 26.4179C24.1574 26.9307 24.8529 27.2188 25.5781 27.2188C26.3033 27.2188 26.9988 26.9307 27.5116 26.4179C28.0244 25.9051 28.3125 25.2096 28.3125 24.4844H27.2188C27.2182 24.9193 27.0452 25.3363 26.7377 25.6439C26.4301 25.9515 26.0131 26.1245 25.5781 26.125Z" fill="white"/>
<path d="M19.5625 30.5C19.2725 30.4997 18.9945 30.3843 18.7895 30.1793C18.5844 29.9742 18.4691 29.6962 18.4688 29.4062H17.375C17.375 29.9864 17.6055 30.5428 18.0157 30.953C18.4259 31.3633 18.9823 31.5938 19.5625 31.5938C20.1427 31.5938 20.6991 31.3633 21.1093 30.953C21.5195 30.5428 21.75 29.9864 21.75 29.4062H20.6562C20.6559 29.6962 20.5406 29.9742 20.3355 30.1793C20.1305 30.3843 19.8525 30.4997 19.5625 30.5Z" fill="white"/>
</g>
<defs>
<clipPath id="clip0_1_4659">
<rect width="35" height="35" fill="white" transform="translate(13 13)"/>
</clipPath>
</defs>
</svg>
