<svg width="60" height="60" viewBox="0 0 60 60" fill="none" xmlns="http://www.w3.org/2000/svg">
<circle cx="30" cy="30" r="29.5" stroke="white"/>
<g clip-path="url(#clip0_1_4646)">
<path d="M30.0001 16.25C33.3183 16.2508 36.6328 16.471 39.9219 16.9091C40.7304 17.0233 41.479 17.3998 42.0526 17.9808C42.6263 18.5618 42.9932 19.3151 43.0971 20.125C43.5311 23.3988 43.7492 26.6976 43.7501 30C43.7493 33.3182 43.5291 36.6327 43.0909 39.9219C42.9766 40.7304 42.5999 41.4791 42.0187 42.0527C41.4375 42.6263 40.684 42.9932 39.8741 43.0969C36.6006 43.531 33.3022 43.7491 30.0001 43.75H29.9278C26.6501 43.7461 23.3762 43.528 20.1269 43.0972C19.3103 42.9876 18.5523 42.6125 17.9697 42.0298C17.3871 41.447 17.0123 40.689 16.9028 39.8722C16.0304 33.3029 16.0326 26.6469 16.9092 20.0781C17.0233 19.2697 17.3999 18.5211 17.9809 17.9474C18.5619 17.3738 19.3152 17.0068 20.1251 16.903C23.3988 16.469 26.6976 16.2508 30.0001 16.25ZM30.0001 15C26.6425 15 23.2886 15.2218 19.9603 15.6639C18.8782 15.8035 17.8721 16.295 17.0968 17.0628C16.3216 17.8305 15.8203 18.8318 15.6702 19.9125C14.7788 26.5911 14.7766 33.3583 15.6636 40.0375C15.8068 41.1275 16.3058 42.1397 17.083 42.9172C17.8603 43.6946 18.8724 44.1939 19.9623 44.3375C23.2657 44.7759 26.5942 44.9972 29.9266 45H30.0001C33.3572 45 36.7107 44.7782 40.0387 44.3363C41.1209 44.1967 42.1273 43.7052 42.9027 42.9374C43.6781 42.1697 44.1796 41.1683 44.3299 40.0875C44.7762 36.7435 45 33.3736 45.0001 30C45 26.6425 44.7783 23.2886 44.3362 19.9602C44.1966 18.8782 43.705 17.872 42.9373 17.0968C42.1696 16.3216 41.1682 15.8203 40.0876 15.6701C36.7436 15.2239 33.3737 15 30.0001 15Z" fill="white"/>
<path d="M30 39.375C30.6628 39.3742 31.2983 39.1106 31.7669 38.6419C32.2356 38.1733 32.4992 37.5378 32.5 36.875V34.375H35.625C36.1221 34.3744 36.5987 34.1767 36.9502 33.8252C37.3017 33.4737 37.4994 32.9971 37.5 32.5V22.5C37.4994 22.0029 37.3017 21.5263 36.9502 21.1748C36.5987 20.8233 36.1221 20.6256 35.625 20.625H24.375C23.8779 20.6256 23.4013 20.8233 23.0498 21.1748C22.6983 21.5263 22.5006 22.0029 22.5 22.5V32.5C22.5006 32.9971 22.6983 33.4737 23.0498 33.8252C23.4013 34.1767 23.8779 34.3744 24.375 34.375H27.5V36.875C27.5008 37.5378 27.7644 38.1733 28.2331 38.6419C28.7017 39.1106 29.3372 39.3742 30 39.375ZM23.75 22.5C23.7502 22.3343 23.8161 22.1754 23.9333 22.0583C24.0504 21.9411 24.2093 21.8752 24.375 21.875H35.625C35.7907 21.8752 35.9496 21.9411 36.0667 22.0583C36.1839 22.1754 36.2498 22.3343 36.25 22.5V29.375H23.75V22.5ZM24.375 33.125C24.2093 33.1248 24.0504 33.0589 23.9333 32.9417C23.8161 32.8246 23.7502 32.6657 23.75 32.5V30.625H36.25V32.5C36.2498 32.6657 36.1839 32.8246 36.0667 32.9417C35.9496 33.0589 35.7907 33.1248 35.625 33.125H31.875C31.7092 33.125 31.5503 33.1908 31.4331 33.3081C31.3158 33.4253 31.25 33.5842 31.25 33.75V36.875C31.25 37.2065 31.1183 37.5245 30.8839 37.7589C30.6495 37.9933 30.3315 38.125 30 38.125C29.6685 38.125 29.3505 37.9933 29.1161 37.7589C28.8817 37.5245 28.75 37.2065 28.75 36.875V33.75C28.75 33.5842 28.6842 33.4253 28.5669 33.3081C28.4497 33.1908 28.2908 33.125 28.125 33.125H24.375Z" fill="white"/>
</g>
<defs>
<clipPath id="clip0_1_4646">
<rect width="30" height="30" fill="white" transform="translate(15 15)"/>
</clipPath>
</defs>
</svg>
