<svg width="60" height="60" viewBox="0 0 60 60" fill="none" xmlns="http://www.w3.org/2000/svg">
<circle cx="30" cy="30" r="29.5" stroke="white"/>
<g clip-path="url(#clip0_1_4619)">
<path d="M44.4141 20.4439H42.2712V18.307C42.2712 17.9835 42.0088 17.7211 41.6852 17.7211H39.544V15.5859C39.544 15.2672 39.2767 15 38.958 15H31.1668H23.3755H15.5859C15.2624 15 15 15.2624 15 15.5859V23.3582V31.1321V38.9054C15 39.224 15.2667 39.492 15.5859 39.492H17.7272V41.6271C17.7272 41.9507 17.9896 42.213 18.3131 42.213H20.456V44.3499C20.456 44.6735 20.7184 44.9358 21.042 44.9358H44.4141C44.7376 44.9358 45 44.6735 45 44.3499V21.0298C45 20.7063 44.7376 20.4439 44.4141 20.4439ZM24.7924 38.3201L28.9181 34.2039C29.6677 33.456 30.4172 32.7079 31.1669 31.96L34.2328 35.0191L30.9244 38.3201H24.7924ZM17.0028 38.3201L23.3765 31.9606L26.4425 35.0185L23.1332 38.3201H17.0028ZM38.3721 30.889L35.0617 34.1907L31.9965 31.1323C34.1217 29.0119 36.247 26.8914 38.3721 24.7706V30.889ZM27.272 34.1908L24.206 31.1329L31.1675 24.1868L34.2322 27.2459C33.0731 28.4025 31.914 29.5591 30.7549 30.7157C30.7539 30.7166 30.7529 30.7174 30.752 30.7182C30.7512 30.7191 30.7505 30.72 30.7496 30.7209C29.8632 31.6053 28.9768 32.4899 28.0904 33.3743L27.272 34.1908ZM16.1719 24.771L18.6509 27.2456L16.1719 29.7196V24.771ZM23.3756 24.186L26.4424 27.246L22.9782 30.7024C22.9727 30.7075 22.9669 30.7121 22.9616 30.7174L19.4811 34.1909L16.4154 31.1321L19.8945 27.6607C19.8972 27.658 19.8995 27.6551 19.9021 27.6523L23.3756 24.186ZM27.6858 19.8868L31.1668 16.4137L34.2328 19.4729L30.7697 22.9284C30.7639 22.9338 30.7578 22.9386 30.7521 22.9443C30.7469 22.9495 30.7424 22.9552 30.7375 22.9605L27.272 26.4183L24.2051 23.3583L27.6772 19.8947C27.68 19.8919 27.683 19.8896 27.6858 19.8868ZM18.6512 35.0184L16.1719 37.4933V32.5446L18.6512 35.0184ZM38.3721 23.1151C37.2688 24.2163 36.1652 25.3172 35.0617 26.4183L31.9971 23.3592L38.3721 16.9983V23.1151ZM35.0624 18.6452L32.5836 16.1719H37.5412L35.0624 18.6452ZM22.9617 22.9433C22.9617 22.9434 22.9616 22.9434 22.9616 22.9434L19.4804 26.4178L16.4154 23.3583L23.3756 16.4136L26.4418 19.4717L22.9617 22.9433ZM38.3721 32.5446V38.3201H32.5836L38.3721 32.5446ZM29.7497 16.1719L27.2715 18.6441L24.7928 16.1719H29.7497ZM21.9587 16.1719L16.1719 21.9458V16.1719H21.9587ZM43.8281 43.764H21.6279V42.2131H28.7319C29.0554 42.2131 29.3178 41.9507 29.3178 41.6272C29.3178 41.3036 29.0554 41.0412 28.7319 41.0412H18.8991V39.492H38.958C39.2816 39.492 39.544 39.2296 39.544 38.9061V23.359C39.544 23.3589 39.544 23.3586 39.544 23.3586V18.893H41.0993V41.0412H33.9953C33.6718 41.0412 33.4094 41.3036 33.4094 41.6272C33.4094 41.9507 33.6718 42.2131 33.9953 42.2131H41.6852C42.0088 42.2131 42.2712 41.9507 42.2712 41.6272V21.6158H43.8281V43.764Z" fill="white"/>
<path d="M31.3644 41.0413C31.0409 41.0413 30.7785 41.3036 30.7785 41.6272C30.7785 41.9508 31.0409 42.2131 31.3644 42.2131H31.3661C31.6896 42.2131 31.9511 41.9508 31.9511 41.6272C31.9511 41.3036 31.688 41.0413 31.3644 41.0413Z" fill="white"/>
</g>
<defs>
<clipPath id="clip0_1_4619">
<rect width="30" height="30" fill="white" transform="translate(15 15)"/>
</clipPath>
</defs>
</svg>
