<svg width="92" height="92" viewBox="0 0 92 92" fill="none" xmlns="http://www.w3.org/2000/svg">
<circle cx="46" cy="46" r="45.5" stroke="white"/>
<path d="M70.2558 56.8744C71.7743 55.3558 72.282 53.2297 71.6139 51.1869C71.5234 50.9098 71.2954 50.6999 71.0119 50.6321C70.7282 50.5643 70.4301 50.6485 70.2239 50.8546L67.193 53.8856L65.7384 53.4957L65.3484 52.0409L68.3795 49.01C68.5855 48.8038 68.6698 48.5056 68.602 48.222C68.5343 47.9386 68.3242 47.7106 68.0472 47.62C66.0046 46.9519 63.8783 47.4595 62.3595 48.9782C61.5242 49.8135 60.995 50.8942 60.8087 52.0322C58.0813 49.4632 54.7396 47.6767 51.1265 46.8272C54.2436 45.3168 56.5672 42.3929 57.222 38.8339H57.3789C58.6624 38.8339 59.7066 37.7898 59.7066 36.5063C59.7066 35.4198 58.9583 34.5048 57.95 34.2496C57.9502 34.2231 57.9503 34.1966 57.9503 34.1702C57.9503 29.2822 54.9474 24.9667 50.4195 23.2505C50.3515 22.8491 50.1847 22.4803 49.9229 22.1612C49.1031 21.1613 47.514 20.855 46.3253 20.7741C46.2872 20.7716 46.2493 20.7716 46.2112 20.7741C45.0225 20.855 43.4335 21.1614 42.6136 22.1612C42.3517 22.4804 42.185 22.8491 42.1171 23.2505C37.5892 24.9667 34.5862 29.2823 34.5862 34.1702C34.5862 34.1966 34.5863 34.2231 34.5865 34.2496C33.5782 34.5048 32.8299 35.4198 32.8299 36.5063C32.8299 37.7897 33.8741 38.8339 35.1576 38.8339H35.3145C35.9689 42.3907 38.2901 45.3132 41.4043 46.8243C39.301 47.318 37.283 48.1326 35.4126 49.2493L35.3389 49.0578C35.2144 48.7341 34.9033 48.5205 34.5563 48.5205H31.6757C31.3288 48.5205 31.0178 48.7341 30.8932 49.0578L30.3686 50.4207C29.6433 50.6283 28.9455 50.9177 28.2849 51.2847L26.9493 50.6914C26.6322 50.5507 26.2614 50.6196 26.016 50.8648L23.979 52.9018C23.7337 53.1472 23.6648 53.5181 23.8056 53.8351L24.3988 55.1706C24.0317 55.8312 23.7423 56.5292 23.5348 57.2544L22.172 57.7789C21.8484 57.9035 21.6347 58.2146 21.6347 58.5615V61.4421C21.6347 61.7891 21.8484 62.1001 22.172 62.2247L23.5346 62.7492C23.7422 63.4748 24.0316 64.1729 24.3986 64.8336L23.8056 66.1687C23.6648 66.4856 23.7337 66.8566 23.9791 67.102L26.0161 69.1389C26.2615 69.3842 26.6323 69.4529 26.9493 69.3123L28.2849 68.719C28.9455 69.086 29.6433 69.3754 30.3686 69.5829L30.8932 70.9458C31.0177 71.2695 31.3288 71.4831 31.6757 71.4831H34.5563C34.9033 71.4831 35.2143 71.2695 35.3389 70.9458L35.8634 69.5833C36.5891 69.3757 37.2872 69.0863 37.9477 68.7193L39.2829 69.3123C39.6 69.4531 39.9709 69.3842 40.2162 69.1388L42.2531 67.1017C42.4984 66.8565 42.5673 66.4855 42.4265 66.1686L42.4059 66.1223H46.5695C46.3943 67.0346 46.4473 67.9936 46.7496 68.9177C46.8401 69.1948 47.0681 69.4047 47.3515 69.4725C47.6353 69.5403 47.9334 69.4561 48.1396 69.25L51.1705 66.2191L52.6252 66.6089L53.0152 68.0638L49.9843 71.0946C49.7781 71.3008 49.6938 71.599 49.7615 71.8825C49.8292 72.166 50.0394 72.394 50.3164 72.4846C50.8926 72.673 51.4823 72.7648 52.0658 72.7648C53.5204 72.7648 54.9363 72.1941 56.0038 71.1264C57.3339 69.7963 57.8875 67.92 57.5396 66.1224H66.5259C66.7638 66.1224 66.9905 66.0214 67.1495 65.8445C67.3085 65.6675 67.3849 65.4313 67.3596 65.1947C67.1072 62.8362 66.4699 60.5707 65.4646 58.4418C67.1903 58.6952 69 58.1299 70.2558 56.8744ZM42.2333 25.0145L42.8468 29.7388C42.9064 30.1981 43.326 30.5219 43.7864 30.4624C44.2456 30.4028 44.5696 29.9821 44.5099 29.5228L43.7688 23.8148C43.7273 23.4955 43.8228 23.3317 43.9105 23.2246C44.2385 22.8248 45.1176 22.537 46.2684 22.4514C47.4192 22.537 48.2983 22.8248 48.6262 23.2246C48.714 23.3317 48.8094 23.4954 48.768 23.8148L48.0268 29.5228C47.9673 29.9821 48.2911 30.4028 48.7503 30.4624C48.787 30.4671 48.8234 30.4694 48.8594 30.4694C49.2744 30.4694 49.635 30.1614 49.6899 29.7387L50.3034 25.0145C53.9119 26.5984 56.2734 30.159 56.2734 34.1703C56.2734 34.1732 56.2733 34.176 56.2733 34.1788H52.7295V28.8598C52.7295 28.3968 52.3541 28.0213 51.891 28.0213C51.4279 28.0213 51.0525 28.3968 51.0525 28.8598V34.1788H41.4845V28.8598C41.4845 28.3968 41.109 28.0213 40.6459 28.0213C40.1829 28.0213 39.8074 28.3968 39.8074 28.8598V34.1788H36.2637C36.2637 34.176 36.2636 34.1732 36.2636 34.1703C36.2633 30.1591 38.6247 26.5984 42.2333 25.0145ZM34.507 36.5064C34.507 36.1477 34.7988 35.8559 35.1576 35.8559H35.4577H57.0786H57.3788C57.7376 35.8559 58.0294 36.1477 58.0294 36.5064C58.0294 36.8651 57.7376 37.1569 57.3788 37.1569H36.0263C36.026 37.1569 36.0256 37.1569 36.0253 37.1569H35.1576C34.7988 37.1569 34.507 36.8651 34.507 36.5064ZM37.0257 38.834H55.5108C54.574 43.1291 50.7555 46.2626 46.2683 46.2626C41.781 46.2626 37.9625 43.1291 37.0257 38.834ZM39.4374 67.5459L38.2357 67.0121C37.9832 66.8999 37.6912 66.9196 37.4556 67.0645C36.707 67.5256 35.8946 67.8624 35.041 68.0657C34.7721 68.1296 34.5518 68.322 34.4526 68.5801L33.9806 69.806H32.2515L31.7794 68.5797C31.6802 68.3217 31.4599 68.1292 31.1911 68.0652C30.3379 67.8621 29.5256 67.5254 28.777 67.0643C28.5414 66.9191 28.2496 66.9 27.997 67.0119L26.7947 67.5459L25.572 66.3233L26.1057 65.1216C26.2179 64.8689 26.1984 64.5771 26.0533 64.3416C25.5922 63.5929 25.2555 62.7804 25.0522 61.9269C24.9883 61.6579 24.7958 61.4377 24.5378 61.3385L23.3118 60.8665V59.1374L24.538 58.6654C24.7959 58.5661 24.9885 58.3459 25.0524 58.077C25.2556 57.2238 25.5922 56.4116 26.0534 55.6628C26.1985 55.4273 26.218 55.1354 26.1058 54.8827L25.572 53.6807L26.7947 52.458L27.9969 52.9919C28.2495 53.1041 28.5413 53.0847 28.7769 52.9395C29.5256 52.4785 30.3379 52.1417 31.191 51.9386C31.4598 51.8747 31.68 51.6821 31.7793 51.4242L32.2514 50.1978H33.9805L34.4526 51.4242C34.5518 51.6821 34.7721 51.8747 35.0409 51.9386C35.8941 52.1417 36.7064 52.4784 37.455 52.9395C37.6906 53.0847 37.9825 53.1039 38.235 52.9919L39.4372 52.458L40.6599 53.6806L40.1262 54.8822C40.014 55.1349 40.0335 55.4267 40.1785 55.6622C40.6397 56.4112 40.9765 57.2236 41.1797 58.077C41.2436 58.346 41.4361 58.5662 41.6941 58.6655L42.9201 59.1374V60.8665L41.6937 61.3386C41.4357 61.4378 41.2432 61.658 41.1793 61.9269C40.9761 62.7801 40.6394 63.5924 40.1784 64.341C40.0333 64.5765 40.0138 64.8683 40.1259 65.121L40.6599 66.3232L39.4374 67.5459ZM48.1077 63.2302C47.7399 63.5981 47.4313 64.0074 47.1845 64.4453H42.0364C42.308 63.9011 42.5296 63.3343 42.697 62.7493L44.06 62.2247C44.3836 62.1002 44.5973 61.7891 44.5973 61.4421V58.5615C44.5973 58.2146 44.3836 57.9036 44.06 57.7789L42.6974 57.2545C42.4899 56.529 42.2004 55.8309 41.8333 55.17L42.4264 53.835C42.5671 53.518 42.4983 53.1471 42.2529 52.9017L40.2159 50.8648C39.9706 50.6195 39.5998 50.5508 39.2827 50.6914L37.9471 51.2847C37.4583 51.0132 36.9491 50.7844 36.4235 50.5995C39.4041 48.8562 42.7841 47.9396 46.2682 47.9396C51.8776 47.9396 57.1946 50.3436 60.9073 54.5436L53.6307 61.8203C51.6825 61.2466 49.5665 61.7716 48.1077 63.2302ZM55.6724 65.6995C56.2688 67.1602 55.9334 68.8248 54.8178 69.9405C54.1478 70.6105 53.2823 71.0008 52.3764 71.074L54.5433 68.9072C54.7551 68.6954 54.8378 68.3866 54.7603 68.0972L54.1198 65.707C54.0423 65.4176 53.8163 65.1917 53.5269 65.1141L51.1368 64.4738C51.065 64.4545 50.9922 64.4453 50.9199 64.4453C50.7004 64.4453 50.4862 64.5315 50.3269 64.6908L48.1601 66.8577C48.2335 65.9518 48.6238 65.0861 49.2936 64.4161C50.4093 63.3005 52.0735 62.9654 53.5347 63.5616C53.8472 63.6892 54.2058 63.617 54.4447 63.3783L62.5078 55.3152C62.7464 55.0764 62.8188 54.7179 62.6911 54.4053C62.1038 52.9669 62.4473 51.2625 63.5455 50.1643C64.2291 49.4807 65.0885 49.0899 65.9953 49.0225L63.8203 51.1973C63.6085 51.4092 63.5258 51.718 63.6033 52.0074L64.2438 54.3974C64.3213 54.6868 64.5473 54.9128 64.8366 54.9904L67.2266 55.6308C67.516 55.7085 67.8248 55.6256 68.0367 55.4138L70.2116 53.2389C70.1442 54.1455 69.7534 55.0051 69.0699 55.6884C67.9715 56.7867 66.2673 57.1304 64.829 56.5429C64.5163 56.4154 64.1578 56.4877 63.9189 56.7263L55.8557 64.7895C55.6171 65.0284 55.5447 65.3869 55.6724 65.6995ZM58.5718 64.4453L63.92 59.097C64.728 60.7936 65.2817 62.5851 65.5705 64.4453H58.5718ZM33.116 54.1396C29.8836 54.1396 27.2537 56.7695 27.2537 60.0019C27.2537 63.2345 29.8836 65.8644 33.116 65.8644C36.3485 65.8644 38.9784 63.2345 38.9784 60.0019C38.9783 56.7695 36.3484 54.1396 33.116 54.1396ZM33.116 64.1872C30.8083 64.1872 28.9308 62.3097 28.9308 60.0018C28.9308 57.694 30.8083 55.8166 33.116 55.8166C35.4238 55.8166 37.3013 57.694 37.3013 60.0018C37.3012 62.3097 35.4237 64.1872 33.116 64.1872Z" fill="white"/>
</svg>
