<svg width="60" height="60" viewBox="0 0 60 60" fill="none" xmlns="http://www.w3.org/2000/svg">
<circle cx="30" cy="30" r="29.5" stroke="white"/>
<g clip-path="url(#clip0_1_4595)">
<path d="M34.5834 32.25V29.9167C34.5834 29.6072 34.4604 29.3105 34.2416 29.0917C34.0229 28.8729 33.7261 28.75 33.4167 28.75H27.5834C27.2739 28.75 26.9772 28.8729 26.7584 29.0917C26.5396 29.3105 26.4167 29.6072 26.4167 29.9167V32.25C26.4167 32.5594 26.5396 32.8562 26.7584 33.075C26.9772 33.2938 27.2739 33.4167 27.5834 33.4167H33.4167C33.7261 33.4167 34.0229 33.2938 34.2416 33.075C34.4604 32.8562 34.5834 32.5594 34.5834 32.25ZM27.5834 29.9167H33.4167V32.25H27.5834V29.9167Z" fill="white"/>
<path d="M46.8333 44.024V29.8986C47.2101 29.3996 47.4148 28.7919 47.4167 28.1667C47.4167 27.3931 47.1094 26.6513 46.5624 26.1043C46.0154 25.5573 45.2735 25.25 44.5 25.25C43.7264 25.25 42.9846 25.5573 42.4376 26.1043C41.8906 26.6513 41.5833 27.3931 41.5833 28.1667C41.5852 28.7919 41.7899 29.3996 42.1667 29.8986V35.0564C40.7783 36.1018 39.1899 36.8507 37.5 37.2568V28.1667C37.4985 27.806 37.3856 27.4546 37.1768 27.1606C36.9679 26.8666 36.6734 26.6442 36.3333 26.524V25.8333C36.3325 25.5645 36.2695 25.2994 36.1491 25.059C36.0288 24.8185 35.8545 24.6092 35.6397 24.4473L37.1057 22.6973C37.3597 22.3948 37.4993 22.0126 37.5 21.6176V18.7954C37.5002 18.4853 37.4144 18.1812 37.2521 17.9169L34.735 13.8085C34.5422 13.4989 34.2555 13.2591 33.9167 13.1242C33.5779 12.9892 33.2048 12.9661 32.852 13.0583L27.3797 14.5062C26.995 14.6086 26.6585 14.843 26.4289 15.1683L23.8074 18.8917C23.5532 19.2511 23.4507 19.6962 23.5222 20.1307L24.0285 23.0958C24.0713 23.3615 24.1769 23.6131 24.3365 23.8298C24.4961 24.0465 24.7051 24.222 24.9461 24.3418L25.2862 24.5115C25.0933 24.6738 24.938 24.876 24.831 25.1043C24.724 25.3325 24.668 25.5813 24.6667 25.8333V26.524C24.3266 26.6442 24.0321 26.8666 23.8232 27.1606C23.6144 27.4546 23.5015 27.806 23.5 28.1667V37.2568C21.8101 36.8507 20.2217 36.1018 18.8333 35.0564V29.8986C19.2101 29.3996 19.4148 28.7919 19.4167 28.1667C19.4167 27.3931 19.1094 26.6513 18.5624 26.1043C18.0154 25.5573 17.2735 25.25 16.5 25.25C15.7265 25.25 14.9846 25.5573 14.4376 26.1043C13.8906 26.6513 13.5833 27.3931 13.5833 28.1667C13.5852 28.7919 13.7899 29.3996 14.1667 29.8986V44.024C13.8266 44.1442 13.5321 44.3666 13.3232 44.6606C13.1144 44.9546 13.0015 45.306 13 45.6667V46.8333C13 47.1428 13.1229 47.4395 13.3417 47.6583C13.5605 47.8771 13.8572 48 14.1667 48H18.8333C19.1428 48 19.4395 47.8771 19.6583 47.6583C19.8771 47.4395 20 47.1428 20 46.8333V45.6667C19.9985 45.306 19.8856 44.9546 19.6768 44.6606C19.4679 44.3666 19.1734 44.1442 18.8333 44.024V39.2028C20.3126 39.9499 21.8807 40.5063 23.5 40.8588V46.25C23.5 46.7141 23.6844 47.1593 24.0126 47.4874C24.3408 47.8156 24.7859 48 25.25 48H35.75C36.2141 48 36.6592 47.8156 36.9874 47.4874C37.3156 47.1593 37.5 46.7141 37.5 46.25V40.8588C39.1193 40.5063 40.6874 39.9499 42.1667 39.2028V44.024C41.8266 44.1442 41.5321 44.3666 41.3232 44.6606C41.1144 44.9546 41.0015 45.306 41 45.6667V46.8333C41 47.1428 41.1229 47.4395 41.3417 47.6583C41.5605 47.8771 41.8572 48 42.1667 48H46.8333C47.1427 48 47.4395 47.8771 47.6583 47.6583C47.8771 47.4395 48 47.1428 48 46.8333V45.6667C47.9985 45.306 47.8856 44.9546 47.6768 44.6606C47.4679 44.3666 47.1734 44.1442 46.8333 44.024ZM43.3333 30.836C43.7007 30.9991 44.0981 31.0833 44.5 31.0833C44.9019 31.0833 45.2993 30.9991 45.6667 30.836V43.9167H43.3333V30.836ZM44.5 26.4167C44.8461 26.4167 45.1845 26.5193 45.4722 26.7116C45.76 26.9039 45.9843 27.1772 46.1168 27.497C46.2492 27.8167 46.2839 28.1686 46.2164 28.5081C46.1488 28.8476 45.9822 29.1594 45.7374 29.4041C45.4927 29.6489 45.1809 29.8155 44.8414 29.883C44.5019 29.9506 44.1501 29.9159 43.8303 29.7835C43.5105 29.651 43.2372 29.4267 43.0449 29.1389C42.8526 28.8511 42.75 28.5128 42.75 28.1667C42.75 27.7025 42.9344 27.2574 43.2626 26.9292C43.5908 26.601 44.0359 26.4167 44.5 26.4167ZM34.5833 25.25C34.738 25.25 34.8864 25.3115 34.9958 25.4209C35.1052 25.5303 35.1667 25.6786 35.1667 25.8333V26.4167H25.8333V25.8333C25.8333 25.6786 25.8948 25.5303 26.0042 25.4209C26.1136 25.3115 26.262 25.25 26.4167 25.25H34.5833ZM25.1794 22.9038L24.6731 19.9382C24.6518 19.8057 24.6834 19.6701 24.7612 19.5608L27.3862 15.8397C27.4575 15.7385 27.5622 15.6658 27.6819 15.6343L33.1542 14.1848C33.1976 14.1732 33.2423 14.1671 33.2872 14.1667C33.3778 14.1664 33.4671 14.1893 33.5464 14.2332C33.6257 14.2771 33.6925 14.3405 33.7404 14.4175L36.2575 18.5271C36.3073 18.6077 36.3336 18.7007 36.3333 18.7954V21.6176C36.3334 21.7391 36.2904 21.8567 36.212 21.9495L34.5833 23.8949C34.5332 23.9542 34.4706 24.0018 34.4001 24.0344C34.3295 24.067 34.2527 24.0837 34.175 24.0833H27.1785C27.0957 24.0828 27.0142 24.0628 26.9405 24.025L25.4647 23.2918C25.3896 23.2545 25.3246 23.1999 25.2749 23.1324C25.2253 23.0649 25.1926 22.9866 25.1794 22.9038ZM24.6667 28.1667C24.6667 28.012 24.7281 27.8636 24.8375 27.7542C24.9469 27.6448 25.0953 27.5833 25.25 27.5833H35.75C35.9047 27.5833 36.0531 27.6448 36.1625 27.7542C36.2719 27.8636 36.3333 28.012 36.3333 28.1667V37.5356C34.4128 37.9175 32.4581 38.1011 30.5 38.0833C28.5419 38.1011 26.5872 37.9175 24.6667 37.5356V28.1667ZM15.3333 30.836C15.7007 30.9991 16.0981 31.0833 16.5 31.0833C16.9019 31.0833 17.2993 30.9991 17.6667 30.836V43.9167H15.3333V30.836ZM16.5 26.4167C16.8461 26.4167 17.1845 26.5193 17.4722 26.7116C17.76 26.9039 17.9843 27.1772 18.1168 27.497C18.2492 27.8167 18.2839 28.1686 18.2164 28.5081C18.1488 28.8476 17.9822 29.1594 17.7374 29.4041C17.4927 29.6489 17.1809 29.8155 16.8414 29.883C16.5019 29.9506 16.1501 29.9159 15.8303 29.7835C15.5105 29.651 15.2372 29.4267 15.0449 29.1389C14.8526 28.8511 14.75 28.5128 14.75 28.1667C14.75 27.7025 14.9344 27.2574 15.2626 26.9292C15.5908 26.601 16.0359 26.4167 16.5 26.4167ZM14.1667 46.8333V45.6667C14.1667 45.512 14.2281 45.3636 14.3375 45.2542C14.4469 45.1448 14.5953 45.0833 14.75 45.0833H18.25C18.4047 45.0833 18.5531 45.1448 18.6625 45.2542C18.7719 45.3636 18.8333 45.512 18.8333 45.6667V46.8333H14.1667ZM36.3333 46.25C36.3333 46.4047 36.2719 46.5531 36.1625 46.6625C36.0531 46.7719 35.9047 46.8333 35.75 46.8333H25.25C25.0953 46.8333 24.9469 46.7719 24.8375 46.6625C24.7281 46.5531 24.6667 46.4047 24.6667 46.25V41.0939C26.5927 41.4304 28.5449 41.5942 30.5 41.5833C32.4551 41.5942 34.4073 41.4304 36.3333 41.0939V46.25ZM30.5 40.4167C24.5587 40.4167 20.9088 39.0698 18.8333 37.871V36.4949C20.7292 37.7479 24.2916 39.25 30.5 39.25C36.7084 39.25 40.2708 37.7479 42.1667 36.4949V37.871C40.0912 39.0698 36.4412 40.4167 30.5 40.4167ZM42.1667 46.8333V45.6667C42.1667 45.512 42.2281 45.3636 42.3375 45.2542C42.4469 45.1448 42.5953 45.0833 42.75 45.0833H46.25C46.4047 45.0833 46.5531 45.1448 46.6625 45.2542C46.7719 45.3636 46.8333 45.512 46.8333 45.6667V46.8333H42.1667Z" fill="white"/>
<path d="M28.1667 22.9166C28.5128 22.9166 28.8511 22.814 29.1389 22.6217C29.4267 22.4294 29.651 22.1561 29.7835 21.8363C29.9159 21.5166 29.9506 21.1647 29.8831 20.8252C29.8155 20.4858 29.6489 20.1739 29.4041 19.9292C29.1594 19.6844 28.8476 19.5178 28.5081 19.4503C28.1686 19.3827 27.8168 19.4174 27.497 19.5498C27.1772 19.6823 26.9039 19.9066 26.7116 20.1944C26.5193 20.4822 26.4167 20.8205 26.4167 21.1666C26.4167 21.6308 26.6011 22.0759 26.9292 22.4041C27.2574 22.7323 27.7026 22.9166 28.1667 22.9166ZM28.1667 20.5833C28.2821 20.5833 28.3948 20.6175 28.4908 20.6816C28.5867 20.7457 28.6615 20.8368 28.7056 20.9434C28.7498 21.05 28.7613 21.1673 28.7388 21.2804C28.7163 21.3936 28.6607 21.4975 28.5792 21.5791C28.4976 21.6607 28.3936 21.7162 28.2805 21.7388C28.1673 21.7613 28.05 21.7497 27.9435 21.7056C27.8369 21.6614 27.7458 21.5866 27.6817 21.4907C27.6176 21.3948 27.5834 21.282 27.5834 21.1666C27.5834 21.0119 27.6448 20.8635 27.7542 20.7541C27.8636 20.6448 28.012 20.5833 28.1667 20.5833Z" fill="white"/>
<path d="M31.0833 19.4166C31.4294 19.4166 31.7678 19.314 32.0556 19.1217C32.3433 18.9294 32.5676 18.6561 32.7001 18.3363C32.8326 18.0166 32.8672 17.6647 32.7997 17.3252C32.7322 16.9858 32.5655 16.6739 32.3207 16.4292C32.076 16.1844 31.7642 16.0178 31.4247 15.9503C31.0853 15.8827 30.7334 15.9174 30.4136 16.0498C30.0938 16.1823 29.8205 16.4066 29.6282 16.6944C29.4359 16.9822 29.3333 17.3205 29.3333 17.6666C29.3333 18.1308 29.5177 18.5759 29.8459 18.9041C30.1741 19.2323 30.6192 19.4166 31.0833 19.4166ZM31.0833 17.0833C31.1987 17.0833 31.3115 17.1175 31.4074 17.1816C31.5033 17.2457 31.5781 17.3368 31.6222 17.4434C31.6664 17.55 31.6779 17.6673 31.6554 17.7804C31.6329 17.8936 31.5774 17.9975 31.4958 18.0791C31.4142 18.1607 31.3103 18.2162 31.1971 18.2388C31.084 18.2613 30.9667 18.2497 30.8601 18.2056C30.7535 18.1614 30.6624 18.0866 30.5983 17.9907C30.5342 17.8948 30.5 17.782 30.5 17.6666C30.5 17.5119 30.5614 17.3635 30.6708 17.2541C30.7802 17.1448 30.9286 17.0833 31.0833 17.0833Z" fill="white"/>
<path d="M31.6667 21.1666C31.6667 21.5127 31.7693 21.8511 31.9616 22.1389C32.1539 22.4267 32.4272 22.651 32.747 22.7834C33.0668 22.9159 33.4186 22.9505 33.7581 22.883C34.0976 22.8155 34.4094 22.6488 34.6541 22.4041C34.8989 22.1593 35.0655 21.8475 35.1331 21.508C35.2006 21.1686 35.1659 20.8167 35.0335 20.4969C34.901 20.1772 34.6767 19.9038 34.3889 19.7116C34.1011 19.5193 33.7628 19.4166 33.4167 19.4166C32.9526 19.4166 32.5074 19.601 32.1793 19.9292C31.8511 20.2574 31.6667 20.7025 31.6667 21.1666ZM33.4167 20.5833C33.5321 20.5833 33.6448 20.6175 33.7408 20.6816C33.8367 20.7457 33.9115 20.8368 33.9556 20.9434C33.9998 21.05 34.0113 21.1673 33.9888 21.2804C33.9663 21.3936 33.9107 21.4975 33.8292 21.5791C33.7476 21.6607 33.6436 21.7162 33.5305 21.7388C33.4173 21.7613 33.3 21.7497 33.1935 21.7056C33.0869 21.6614 32.9958 21.5866 32.9317 21.4907C32.8676 21.3948 32.8334 21.282 32.8334 21.1666C32.8334 21.0119 32.8948 20.8635 33.0042 20.7541C33.1136 20.6448 33.262 20.5833 33.4167 20.5833Z" fill="white"/>
</g>
<defs>
<clipPath id="clip0_1_4595">
<rect width="35" height="35" fill="white" transform="translate(13 13)"/>
</clipPath>
</defs>
</svg>
