<svg width="60" height="60" viewBox="0 0 60 60" fill="none" xmlns="http://www.w3.org/2000/svg">
<circle cx="30" cy="30" r="29.5" stroke="white"/>
<g clip-path="url(#clip0_1_4554)">
<path d="M41.1058 22.9057C41.2153 23.0153 41.3639 23.0769 41.5188 23.0769C41.6095 23.0766 41.6988 23.0558 41.7801 23.0156L45.7738 21.0187C45.9541 20.9286 46.0753 20.752 46.0944 20.5512L46.5933 15.0596C46.5933 15.0511 46.5899 15.0434 46.5933 15.0345C46.5945 14.9775 46.5868 14.9207 46.5711 14.8656C46.5682 14.8434 46.564 14.8211 46.5583 14.7992C46.53 14.7219 46.4852 14.652 46.4273 14.5935C46.3589 14.5133 46.2624 14.4623 46.1575 14.4503C46.1018 14.4343 46.0442 14.4269 45.9863 14.428C45.9775 14.428 45.97 14.4241 45.9612 14.4246L40.4691 14.9224C40.2682 14.9415 40.0917 15.0628 40.0015 15.243L38.0047 19.2361C37.8923 19.4615 37.9365 19.7333 38.1145 19.9111L38.2004 19.9969L37.0319 21.1654L36.8602 20.9931C36.4041 20.5364 35.6638 20.5364 35.2077 20.9931L34.444 21.7567C32.9059 20.4194 31.2668 19.2025 29.5418 18.1168C30.1346 16.9723 30.051 15.5945 29.3245 14.5296C28.5979 13.465 27.3456 12.8848 26.0636 13.0191C24.7814 13.1535 23.6766 13.9808 23.1868 15.1732C20.0629 14.3008 17.6327 14.6023 16.1468 16.088C12.9707 19.2627 15.3595 26.9082 21.8121 34.3832L16.1656 40.0366C16.1077 40.0919 16.0621 40.1587 16.0313 40.2325C16.0273 40.2405 16.0241 40.2482 16.0207 40.2562C16.0139 40.2745 16.0039 40.2902 15.9985 40.309L14.5011 45.8006C14.4532 45.9763 14.49 46.1643 14.6007 46.3089C14.7111 46.4535 14.8828 46.5385 15.0651 46.5385C15.1167 46.5382 15.1681 46.5314 15.218 46.518L20.7095 45.0207C20.7275 45.0141 20.7446 45.0067 20.7618 44.9984L20.788 44.9873C20.8599 44.9573 20.9252 44.9128 20.9797 44.8569L26.6401 39.2013C28.1777 40.5386 29.8162 41.7553 31.5409 42.8404C30.9276 43.986 30.9987 45.3772 31.7252 46.4547C32.4518 47.5321 33.7149 48.1192 35.0072 47.98C36.2994 47.8405 37.4082 46.9978 37.8886 45.79C38.9158 46.0955 39.9795 46.261 41.051 46.2821C42.4821 46.3582 43.8825 45.8485 44.93 44.8706C48.1058 41.6948 45.7176 34.0521 39.2633 26.5756L40.0226 25.8163C40.4788 25.3601 40.4788 24.6204 40.0226 24.164L39.8509 23.9889L41.0193 22.8204L41.1058 22.9057ZM36.029 21.8215L39.1954 24.9879L32.5342 31.6479L29.369 28.4826L36.029 21.8215ZM28.1338 28.0633L28.1264 28.0684L26.1401 30.0547C22.6984 25.9769 21.3143 22.627 20.9469 20.9018C22.7309 21.2723 26.0528 22.6581 30.1149 26.0821L28.1338 28.0633ZM28.5394 29.3076L29.7113 30.4794L28.0451 32.1457C27.6668 31.7563 27.2888 31.3529 26.9111 30.9359L28.5394 29.3076ZM30.5374 31.3056L31.7092 32.4774L30.081 34.1057C29.6593 33.7237 29.256 33.3457 28.8712 32.9718L30.5374 31.3056ZM32.9484 32.8905L32.9536 32.8831L34.9341 30.9025C38.3764 34.9809 39.761 38.3307 40.1285 40.0565C38.3441 39.6863 35.0217 38.3005 30.9616 34.8776L32.9484 32.8905ZM24.7956 14.8055C25.7085 13.8932 27.1881 13.8935 28.1007 14.806C29.0129 15.7189 29.0127 17.1985 28.1001 18.1111C27.1747 18.9925 25.7207 18.9925 24.7956 18.1111C23.8825 17.1985 23.8825 15.7183 24.7956 14.8055ZM22.592 35.2579C22.958 35.6624 23.3368 36.0654 23.7276 36.4665L18.561 41.638L17.5828 40.659L17.3882 40.4639L22.592 35.2579ZM20.5532 43.6277L19.3848 42.4593L24.5486 37.2909C24.9505 37.6823 25.3533 38.0606 25.7567 38.4254L20.5532 43.6277ZM15.8958 45.1211L16.8597 41.5884L19.4302 44.1589L15.8958 45.1211ZM36.2791 46.1534C35.3537 47.0349 33.8998 47.0349 32.9747 46.1534C32.0618 45.2409 32.0618 43.7612 32.9744 42.8484C33.8869 41.9358 35.3669 41.9358 36.2794 42.8484C37.192 43.7612 37.1917 45.2409 36.2791 46.1534ZM44.1016 44.0439C42.9374 45.2075 40.8253 45.4052 38.1251 44.6393C38.1251 44.593 38.1322 44.5474 38.1322 44.5006C38.1336 43.1114 37.3135 41.8525 36.0421 41.2926C34.7704 40.7326 33.2882 40.9776 32.2644 41.9167C30.3973 40.7529 28.633 39.4318 26.9904 37.9678C26.3124 37.3734 25.63 36.7307 24.9568 36.06C24.2839 35.3894 23.6435 34.7056 23.0476 34.0244C16.8451 27.0104 14.2335 19.6546 16.9729 16.9152C18.1379 15.7514 20.25 15.554 22.9494 16.3199C22.9494 16.3661 22.9426 16.4115 22.9426 16.4583C22.9412 17.8478 23.7613 19.1063 25.0327 19.6663C26.3041 20.2263 27.7866 19.9815 28.8104 19.0424C30.5 20.0973 32.1043 21.2829 33.6091 22.588L30.9427 25.2543C26.5794 21.5639 22.4776 19.7673 20.2948 19.6324C20.1285 19.6212 19.9653 19.6826 19.8475 19.8007C19.7291 19.9179 19.6663 20.0799 19.6749 20.2462C19.7639 21.9019 21.1243 26.0938 25.6668 31.3038C26.3264 32.0504 26.9673 32.7327 27.6257 33.3911C28.2747 34.0409 28.9576 34.6811 29.7164 35.3537C34.2338 39.286 38.5281 41.187 40.7797 41.3265H40.8159C40.9765 41.3268 41.13 41.2612 41.2404 41.1448C41.3511 41.0284 41.4087 40.8718 41.4002 40.7115C41.3137 39.1 40.0143 35.0856 35.7631 30.0729L38.4294 27.4066C44.3346 34.2768 46.7785 41.3659 44.1016 44.0439ZM40.8978 16.0597L44.4576 15.7363L42.6031 17.5876C42.4513 17.7342 42.3903 17.9516 42.4439 18.1558C42.4973 18.3601 42.6567 18.5196 42.861 18.5729C43.0652 18.6265 43.2826 18.5655 43.4292 18.4137L45.2834 16.5595L44.9605 20.119L41.6341 21.7818L39.235 19.3822L40.8978 16.0597ZM40.1932 21.9938L39.0248 23.1622L37.8563 21.9938L39.0248 20.8253L40.1932 21.9938Z" fill="white"/>
</g>
<defs>
<clipPath id="clip0_1_4554">
<rect width="35" height="35" fill="white" transform="translate(13 13)"/>
</clipPath>
</defs>
</svg>
