<svg width="60" height="60" viewBox="0 0 60 60" fill="none" xmlns="http://www.w3.org/2000/svg">
<circle cx="30" cy="30" r="29.5" stroke="white"/>
<path fill-rule="evenodd" clip-rule="evenodd" d="M34.322 29.429C33.895 31.319 33.328 33.279 32.838 35.169C32.6 36.065 32.068 36.569 31.361 36.569H28.904V38.06H32.607C35.078 38.06 35.085 41.826 32.607 41.826H21.302C18.824 41.826 18.824 38.06 21.302 38.06H25.012V36.576H22.555C21.841 36.576 21.309 36.065 21.078 35.183L19.601 29.478C19.489 29.051 19.58 28.61 19.853 28.232L18.838 26.825C18.677 26.608 18.796 26.44 18.915 26.258C18.838 26.202 18.768 26.125 18.719 26.041C18.243 25.25 16.563 22.492 16.563 22.492C16.066 21.638 18.187 20.217 18.761 21.169L20.917 24.718C20.973 24.809 21.008 24.914 21.015 25.012C21.232 24.991 21.428 24.97 21.547 25.208L22.604 27.322H25.558V25.677C23.605 24.662 23.353 21.12 24.613 19.874C25.558 18.943 28.358 18.943 29.296 19.874C30.556 21.127 30.311 24.669 28.351 25.677V27.322H31.319C31.151 27.14 31.081 26.916 31.284 26.727L35.764 22.471C36.485 21.785 37.626 21.806 38.424 22.513L39.432 23.423C39.642 23.612 39.579 23.948 39.327 24.06C38.732 24.319 38.389 24.403 38.137 24.473C37.759 24.571 37.626 24.606 36.842 25.341C37.437 25.936 37.64 25.915 36.982 26.538C39.453 29.135 41.931 31.739 44.402 34.336C44.549 34.483 44.542 34.735 44.388 34.875L42.092 37.052C41.938 37.199 41.686 37.192 41.546 37.038C39.138 34.504 36.73 31.97 34.322 29.429ZM28.141 38.06V36.576H25.775V38.06H28.141ZM21.302 38.823C19.832 38.823 19.839 41.056 21.302 41.056H32.614C34.084 41.056 34.077 38.823 32.614 38.823H28.526H25.39H21.302ZM33.496 29.562C33.349 29.513 33.013 29.114 32.887 28.981L32.726 29.128C33.062 29.478 33.398 29.912 32.929 30.367L32.376 30.892C32.089 31.158 31.641 31.137 31.368 30.857L29.751 29.156C29.429 28.813 29.527 28.379 29.842 28.085C27.553 28.085 25.271 28.085 22.982 28.085L24.165 30.444C24.277 30.654 24.207 30.913 24.004 31.046C23.668 31.249 23.192 31.585 22.856 31.746C22.611 31.858 22.457 31.774 22.282 31.599L20.35 28.925C20.315 29.03 20.308 29.149 20.343 29.282L21.82 34.987C21.897 35.295 22.093 35.806 22.555 35.806H31.361C31.816 35.806 32.019 35.288 32.103 34.987L33.496 29.562ZM22.751 30.92L23.367 30.549L20.987 25.796C20.266 25.866 20.049 25.929 19.622 26.587C20.665 28.029 21.708 29.471 22.751 30.92ZM33.643 28.645C34.238 27.854 35.617 26.769 36.443 25.992C36.023 25.621 35.841 25.236 36.303 24.795C37.213 23.948 37.437 23.857 37.955 23.724C38.095 23.689 38.249 23.647 38.466 23.577C37.885 23.052 37.094 22.275 36.303 23.024L32.096 27.021L32.467 27.406C32.663 27.567 32.74 27.847 32.537 28.036L31.823 28.715C31.669 28.862 31.431 28.855 31.284 28.701L30.829 28.225L30.36 28.666L31.9 30.29L32.369 29.849L31.921 29.38C31.774 29.226 31.781 28.988 31.935 28.841L32.649 28.162C32.796 28.015 33.048 28.022 33.188 28.176L33.643 28.645ZM26.321 27.322H27.588V25.95C27.175 26.041 26.741 26.034 26.321 25.95V27.322ZM28.757 20.413C28.134 19.797 25.789 19.79 25.159 20.413C24.207 21.351 24.298 25.243 26.958 25.243C29.618 25.25 29.702 21.337 28.757 20.413ZM17.242 22.128L17.424 22.429L18.306 21.897L18.117 21.589L17.242 22.128ZM17.823 23.087L18.768 24.641L19.643 24.109L18.705 22.562L17.823 23.087ZM19.167 25.292L19.349 25.6L20.224 25.068L20.035 24.76L19.167 25.292ZM25.908 31.97L24.48 31.585C23.997 31.452 24.179 30.724 24.676 30.843L26.104 31.228C26.559 31.347 26.454 32.061 25.908 31.97ZM24.837 33.181L23.731 32.194C23.36 31.858 23.857 31.284 24.242 31.62L25.348 32.607C25.719 32.936 25.236 33.517 24.837 33.181ZM22.968 33.531L22.807 32.537C22.73 32.04 23.486 31.921 23.563 32.418L23.724 33.412C23.801 33.916 23.038 34.028 22.968 33.531ZM40.111 34.406L41.854 32.754L38.165 28.876L36.429 30.528L40.111 34.406ZM42.379 33.307L40.636 34.959L41.84 36.226L43.576 34.574L42.379 33.307ZM34.7 28.708L35.897 29.968L37.633 28.316L36.429 27.056L34.7 28.708Z" fill="white"/>
</svg>
