<svg width="60" height="60" viewBox="0 0 60 60" fill="none" xmlns="http://www.w3.org/2000/svg">
<circle cx="30" cy="30" r="29.5" stroke="white"/>
<g clip-path="url(#clip0_1_4584)">
<path d="M14.8899 26.0136C13.8758 26.0136 13.0514 26.8381 13.0514 27.8518C13.0514 28.8658 13.8758 29.6903 14.8899 29.6903C15.2874 29.6903 15.6536 29.5601 15.9547 29.3448C16.24 31.6283 17.165 33.7498 18.5826 35.4835C17.5989 35.5182 16.8082 36.3236 16.8082 37.3153C16.8082 38.3293 17.6326 39.1538 18.6466 39.1538C19.6513 39.1538 20.4681 38.3427 20.4821 37.3407C21.0018 37.7482 21.5553 38.1174 22.1437 38.4378L21.0963 40.9693C21.0042 41.1926 21.11 41.4486 21.333 41.541C21.388 41.5634 21.4444 41.5741 21.5005 41.5741C21.6724 41.5741 21.835 41.4726 21.9047 41.304L22.9298 38.827C23.2549 38.9742 23.5863 39.1117 23.9281 39.2312C23.9759 39.2479 24.0246 39.2556 24.0727 39.2556C24.2532 39.2556 24.4225 39.1428 24.4856 38.9625C24.5653 38.7342 24.4452 38.4849 24.2169 38.4048C22.7138 37.8797 21.3814 37.0479 20.2675 36.0022L26.4582 29.8111C26.7446 30.0201 27.0767 30.1686 27.4379 30.237V31.5391C27.4379 31.7808 27.6338 31.9764 27.8755 31.9764C28.1172 31.9764 28.3131 31.7808 28.3131 31.5391V30.2427C28.6836 30.1783 29.0251 30.0308 29.3188 29.8191L29.8589 30.3589C29.9443 30.4443 30.0561 30.487 30.1679 30.487C30.2801 30.487 30.3919 30.4443 30.4774 30.3589C30.6483 30.188 30.6483 29.9113 30.4774 29.7404L29.9276 29.1906C30.1095 28.9186 30.2367 28.6078 30.2971 28.274H39.062C39.0239 29.2974 38.8561 30.3051 38.5446 31.2738C38.4709 31.5038 38.5974 31.7501 38.8273 31.8242C39.057 31.8976 39.304 31.7718 39.3778 31.5411C39.6081 30.8248 39.7613 30.0878 39.8534 29.3405C40.1555 29.5585 40.5233 29.6903 40.9235 29.6903C41.9369 29.6903 42.7617 28.8658 42.7617 27.8518C42.7617 26.8381 41.9369 26.0136 40.9235 26.0136C40.5253 26.0136 40.1588 26.1438 39.8577 26.3598C39.5934 24.2299 38.7743 22.2699 37.5453 20.6327C38.4295 20.4998 39.1117 19.7425 39.1117 18.8222C39.1117 17.8082 38.2869 16.9837 37.2736 16.9837C36.376 16.9837 35.6297 17.6306 35.4695 18.4824C33.7615 17.1006 31.6703 16.177 29.3819 15.8956C29.5938 15.5959 29.7213 15.2324 29.7213 14.8385C29.7213 13.8245 28.8965 13 27.8828 13C26.8688 13 26.0443 13.8245 26.0443 14.8385C26.0443 15.2347 26.1732 15.5995 26.3875 15.9003C24.2563 16.169 22.2963 16.9937 20.66 18.2284C20.5419 17.3279 19.7778 16.6283 18.8459 16.6283C17.8322 16.6283 17.0078 17.4527 17.0078 18.4667C17.0078 19.3766 17.6733 20.1287 18.5425 20.2745C17.1593 21.9798 16.234 24.0687 15.949 26.3548C15.6492 26.1415 15.2848 26.0136 14.8899 26.0136ZM14.8899 28.8154C14.3588 28.8154 13.9262 28.3829 13.9262 27.8518C13.9262 27.3208 14.3588 26.8885 14.8899 26.8885C15.4209 26.8885 15.8529 27.3208 15.8529 27.8518C15.8529 28.3829 15.4209 28.8154 14.8899 28.8154ZM27.8939 29.4062C27.0283 29.4062 26.3237 28.7023 26.3237 27.8365C26.3237 26.9709 27.0283 26.2663 27.8939 26.2663C28.7594 26.2663 29.4636 26.9709 29.4636 27.8365C29.4636 28.7023 28.7594 29.4062 27.8939 29.4062ZM25.4903 28.274C25.55 28.6035 25.6748 28.9099 25.8528 29.1793L19.6533 35.3787C17.9093 33.4637 16.8462 30.9634 16.7444 28.274H25.4903ZM29.9276 26.4819L36.121 20.2885C37.8597 22.1764 38.9572 24.6625 39.0667 27.3992H30.2971C30.2364 27.0651 30.1092 26.754 29.9276 26.4819ZM29.3185 25.8534C29.0297 25.6455 28.6949 25.4989 28.3314 25.4329V16.6873C31.0955 16.7921 33.6049 17.9047 35.5032 19.669L29.3185 25.8534ZM27.4563 25.4329C27.0881 25.4996 26.7493 25.6492 26.4582 25.8614L20.2839 19.6871C22.1801 17.9167 24.6902 16.7971 27.4563 16.6877V25.4329ZM25.8528 26.4936C25.6748 26.763 25.55 27.0697 25.4903 27.3992H16.7394C16.8485 24.6718 17.9384 22.1931 19.667 20.3076L25.8528 26.4936ZM18.6466 38.2789C18.1156 38.2789 17.683 37.8464 17.683 37.3153C17.683 36.7843 18.1156 36.352 18.6466 36.352C19.1777 36.352 19.6096 36.7843 19.6096 37.3153C19.6096 37.8464 19.1777 38.2789 18.6466 38.2789ZM40.9235 26.8885C41.4546 26.8885 41.8865 27.3208 41.8865 27.8518C41.8865 28.3829 41.4546 28.8154 40.9235 28.8154C40.3925 28.8154 39.9602 28.3829 39.9602 27.8518C39.9602 27.3208 40.3925 26.8885 40.9235 26.8885ZM37.2736 17.8586C37.8046 17.8586 38.2365 18.2912 38.2365 18.8222C38.2365 19.3533 37.8046 19.7852 37.2736 19.7852C36.7425 19.7852 36.3103 19.3533 36.3103 18.8222C36.3103 18.2912 36.7425 17.8586 37.2736 17.8586ZM27.8828 13.8749C28.4139 13.8749 28.8461 14.3074 28.8461 14.8385C28.8461 15.3695 28.4139 15.8015 27.8828 15.8015C27.3518 15.8015 26.9192 15.3695 26.9192 14.8385C26.9192 14.3074 27.3518 13.8749 27.8828 13.8749ZM17.8826 18.4667C17.8826 17.9357 18.3149 17.5031 18.8459 17.5031C19.377 17.5031 19.8092 17.9357 19.8092 18.4667C19.8092 18.9978 19.377 19.4301 18.8459 19.4301C18.3149 19.4301 17.8826 18.9978 17.8826 18.4667Z" fill="white"/>
<path d="M13.489 45.1369H15.0965C15.2761 45.1406 15.4516 45.1422 15.6255 45.1422C15.6903 45.1422 15.7507 45.1396 15.8148 45.1392V47.5625C15.8148 47.8042 16.0104 48.0001 16.2524 48.0001C16.4941 48.0001 16.6897 47.8042 16.6897 47.5625V45.1172C17.6853 45.0748 18.5826 44.9753 19.385 44.8218V47.5625C19.385 47.8042 19.5806 48.0001 19.8222 48.0001C20.0642 48.0001 20.2598 47.8042 20.2598 47.5625V44.6222C21.3176 44.3475 22.1991 43.9746 22.9365 43.5277V47.5625C22.9365 47.8042 23.1321 48.0001 23.3741 48.0001C23.6157 48.0001 23.8117 47.8042 23.8117 47.5625V42.9162C25.2109 41.7807 25.9672 40.3324 26.4879 38.8654V47.5625C26.4879 47.8042 26.6835 48.0001 26.9252 48.0001C27.1672 48.0001 27.3628 47.8042 27.3628 47.5625V35.9671C27.9723 34.2071 29.1018 33.0989 30.0027 32.4597V47.5625C30.0027 47.8042 30.1983 48.0001 30.4403 48.0001C30.682 48.0001 30.8779 47.8042 30.8779 47.5625V31.926C31.1409 31.7914 31.3142 31.725 31.3272 31.7204C31.3415 31.7143 32.3539 31.2924 33.6744 31.3605V47.5625C33.6744 47.8042 33.8703 48.0001 34.112 48.0001C34.3539 48.0001 34.5495 47.8042 34.5495 47.5625V31.481C34.86 31.5505 35.1774 31.6486 35.4962 31.7928C36.135 32.0818 36.7108 32.5128 37.2262 33.0729V47.5625C37.2262 47.8042 37.4218 48.0001 37.6638 48.0001C37.9054 48.0001 38.101 47.8042 38.101 47.5625V34.2458C38.5116 34.9227 38.8671 35.7138 39.1635 36.621C39.5874 37.9194 40.1425 38.9184 40.7406 39.6932V47.5625C40.7406 47.8042 40.9365 48.0001 41.1782 48.0001C41.4199 48.0001 41.6158 47.8042 41.6158 47.5625V40.6528C42.2143 41.2045 42.8158 41.5767 43.3435 41.8234C43.722 42.0003 44.0835 42.1251 44.4129 42.2139V47.5625C44.4129 47.8042 44.6085 48.0001 44.8505 48.0001C45.0922 48.0001 45.2878 47.8042 45.2878 47.5625V42.3858C45.7484 42.4419 46.0381 42.4225 46.0461 42.4219L47.6139 42.4215C47.8556 42.4215 48.0512 42.2253 48.0512 41.9839C48.0512 41.7419 47.8553 41.5463 47.6139 41.5463L46.0148 41.548C45.8429 41.5564 41.7677 41.7763 39.9946 36.3493C39.1074 33.6326 37.7108 31.8295 35.8446 30.9904C33.4003 29.8902 31.0772 30.8752 31.0077 30.9062C30.8635 30.957 27.4699 32.1997 26.3721 36.1891L26.2913 36.4831C25.7256 38.5536 25.1208 40.7796 23.1471 42.3191C23.1124 42.3408 23.079 42.3635 23.0516 42.3938C21.4708 43.5821 19.0362 44.3401 15.1048 44.262H13.489C13.247 44.262 13.0514 44.4576 13.0514 44.6996C13.0514 44.9413 13.247 45.1369 13.489 45.1369Z" fill="white"/>
</g>
<defs>
<clipPath id="clip0_1_4584">
<rect width="35" height="35" fill="white" transform="translate(13 13)"/>
</clipPath>
</defs>
</svg>
