<svg width="60" height="60" viewBox="0 0 60 60" fill="none" xmlns="http://www.w3.org/2000/svg">
<circle cx="30" cy="30" r="29.5" stroke="white"/>
<path fill-rule="evenodd" clip-rule="evenodd" d="M18.8333 35.451V44.3542C18.8333 44.5475 18.9102 44.733 19.0469 44.8698C19.1836 45.0065 19.3691 45.0833 19.5625 45.0833H21.75C21.9434 45.0833 22.1289 45.0065 22.2656 44.8698C22.4023 44.733 22.4792 44.5475 22.4792 44.3542V36.3333C23.5082 36.2286 24.5105 35.9422 25.4396 35.4875C27.177 34.6946 28.8667 33.8011 30.5 32.8114C32.1333 33.8011 33.823 34.6946 35.5604 35.4875C36.4895 35.9422 37.4918 36.2286 38.5208 36.3333C39.3979 36.3752 40.2745 36.2405 41.0987 35.9374C41.9228 35.6343 42.6778 35.1689 43.3188 34.5687C43.9189 33.9277 44.3843 33.1728 44.6874 32.3487C44.9905 31.5245 45.1252 30.6479 45.0833 29.7708C45.1178 29.1821 45.0328 28.5924 44.8336 28.0373C44.6344 27.4822 44.325 26.9731 43.924 26.5406C42.4 25.0094 39.8625 25.3958 39.8625 25.3958C39.7627 25.4138 39.6675 25.4514 39.5824 25.5065C39.4973 25.5616 39.424 25.633 39.3667 25.7167C39.312 25.801 39.2754 25.8956 39.2591 25.9948C39.2428 26.0939 39.2471 26.1953 39.2719 26.2927C39.3592 26.685 39.3838 27.0886 39.3448 27.4885C39.34 27.7404 39.2382 27.9808 39.0604 28.1594C38.9032 28.2703 38.7129 28.3243 38.5208 28.3125C38.2733 28.3186 38.0282 28.2615 37.8088 28.1467C37.5894 28.0319 37.4028 27.8631 37.2667 27.6562C37.0174 27.2994 36.8002 26.9212 36.6177 26.526C35.9542 25.1844 35.2031 23.9375 33.4167 23.9375C32.3407 24.0378 31.322 24.4682 30.5 25.1698C29.678 24.4682 28.6593 24.0378 27.5833 23.9375C25.7969 23.9375 25.0458 25.1844 24.3823 26.526C24.1998 26.9212 23.9826 27.2994 23.7333 27.6562C23.5972 27.8631 23.4106 28.0319 23.1912 28.1467C22.9718 28.2615 22.7267 28.3186 22.4792 28.3125C22.288 28.3264 22.0977 28.275 21.9396 28.1667C21.7618 27.9881 21.66 27.7477 21.6552 27.4958C21.6162 27.0959 21.6408 26.6923 21.7281 26.3C21.7529 26.2026 21.7572 26.1012 21.7409 26.0021C21.7246 25.9029 21.688 25.8083 21.6333 25.7239C21.576 25.6403 21.5027 25.5689 21.4176 25.5138C21.3325 25.4587 21.2373 25.4211 21.1375 25.4031C21.1375 25.4031 18.6 25.0094 17.076 26.5406C16.675 26.9731 16.3656 27.4822 16.1664 28.0373C15.9672 28.5924 15.8822 29.1821 15.9167 29.7708C15.8748 30.6479 16.0095 31.5245 16.3126 32.3487C16.6157 33.1728 17.0811 33.9277 17.6813 34.5687C18.0231 34.9142 18.4107 35.2111 18.8333 35.451ZM20.2917 36.0562V43.625H21.0208V36.2167C20.7729 36.1729 20.525 36.1219 20.2917 36.0562ZM29.9823 26.6427C30.0501 26.711 30.1307 26.7653 30.2196 26.8023C30.3084 26.8393 30.4037 26.8584 30.5 26.8584C30.5963 26.8584 30.6916 26.8393 30.7804 26.8023C30.8693 26.7653 30.9499 26.711 31.0177 26.6427C31.3513 26.3239 31.7208 26.045 32.1188 25.8114C32.5092 25.5653 32.9558 25.4223 33.4167 25.3958C33.6642 25.3897 33.9093 25.4468 34.1287 25.5616C34.3481 25.6764 34.5347 25.8452 34.6708 26.0521C34.9201 26.4089 35.1373 26.7871 35.3198 27.1823C35.9833 28.5239 36.7344 29.7708 38.5208 29.7708C39.0473 29.796 39.5651 29.6303 39.9792 29.3042C40.4609 28.8907 40.7596 28.3036 40.8104 27.6708C40.8394 27.3799 40.8394 27.0868 40.8104 26.7958C41.5806 26.7826 42.3266 27.0644 42.8958 27.5833C43.1568 27.8811 43.3558 28.2279 43.481 28.6036C43.6062 28.9792 43.6551 29.376 43.625 29.7708C43.6628 30.4562 43.5644 31.1423 43.3353 31.7894C43.1063 32.4364 42.7512 33.0317 42.2906 33.5406C41.7817 34.0012 41.1864 34.3563 40.5394 34.5853C39.8923 34.8144 39.2062 34.9128 38.5208 34.875C37.6916 34.7745 36.8867 34.5276 36.1438 34.1458C34.3363 33.3169 32.5807 32.3795 30.8865 31.3385C30.7706 31.2661 30.6367 31.2277 30.5 31.2277C30.3633 31.2277 30.2294 31.2661 30.1135 31.3385C28.4193 32.3795 26.6637 33.3169 24.8563 34.1458C24.1133 34.5276 23.3084 34.7745 22.4792 34.875C21.7938 34.9128 21.1077 34.8144 20.4606 34.5853C19.8136 34.3563 19.2183 34.0012 18.7094 33.5406C18.2488 33.0317 17.8937 32.4364 17.6647 31.7894C17.4356 31.1423 17.3372 30.4562 17.375 29.7708C17.3449 29.376 17.3938 28.9792 17.519 28.6036C17.6442 28.2279 17.8432 27.8811 18.1042 27.5833C18.6756 27.0697 19.4214 26.7933 20.1896 26.8104C20.1606 27.1014 20.1606 27.3945 20.1896 27.6854C20.2441 28.313 20.5425 28.8942 21.0208 29.3042C21.4349 29.6303 21.9527 29.796 22.4792 29.7708C24.2656 29.7708 25.0167 28.5239 25.6802 27.1823C25.8627 26.7871 26.0799 26.4089 26.3292 26.0521C26.4653 25.8452 26.6519 25.6764 26.8713 25.5616C27.0907 25.4468 27.3358 25.3897 27.5833 25.3958C28.0442 25.4223 28.4908 25.5653 28.8813 25.8114C29.2792 26.045 29.6487 26.3239 29.9823 26.6427ZM33.7083 31.8125C35.0763 32.8055 36.6396 33.4965 38.2948 33.8396C39.196 34.04 40.1388 33.9221 40.9629 33.5061C41.7871 33.09 42.4417 32.4014 42.8156 31.5573C42.8864 31.3873 42.8903 31.1969 42.8264 31.0242C42.7626 30.8515 42.6358 30.7093 42.4715 30.6263C42.3072 30.5432 42.1176 30.5253 41.9406 30.5763C41.7637 30.6273 41.6126 30.7433 41.5177 30.901C40.6208 32.6875 38.9656 32.6219 37.5583 32.1771C36.4958 31.8179 35.4931 31.3018 34.5833 30.6458C34.5067 30.5884 34.4196 30.5466 34.3268 30.5228C34.234 30.499 34.1375 30.4938 34.0427 30.5073C33.9479 30.5209 33.8567 30.5529 33.7743 30.6017C33.6919 30.6505 33.62 30.715 33.5625 30.7917C33.505 30.8683 33.4632 30.9554 33.4395 31.0482C33.4157 31.1409 33.4105 31.2375 33.424 31.3323C33.4375 31.4271 33.4696 31.5183 33.5184 31.6007C33.5672 31.6831 33.6317 31.755 33.7083 31.8125ZM42.1083 19.5625C41.9396 18.5394 41.4129 17.6096 40.6223 16.9387C39.8317 16.2678 38.8286 15.8995 37.7917 15.8995C36.7548 15.8995 35.7516 16.2678 34.961 16.9387C34.1704 17.6096 33.6438 18.5394 33.475 19.5625H32.5635C32.4132 19.1352 32.134 18.7651 31.7644 18.5033C31.3947 18.2415 30.953 18.1009 30.5 18.1009C30.047 18.1009 29.6053 18.2415 29.2356 18.5033C28.866 18.7651 28.5868 19.1352 28.4365 19.5625H27.525C27.3562 18.5394 26.8296 17.6096 26.039 16.9387C25.2484 16.2678 24.2452 15.8995 23.2083 15.8995C22.1714 15.8995 21.1683 16.2678 20.3777 16.9387C19.5871 17.6096 19.0604 18.5394 18.8917 19.5625H18.1042C17.9108 19.5625 17.7253 19.4857 17.5886 19.3489C17.4518 19.2122 17.375 19.0267 17.375 18.8333V16.6458C17.375 16.4524 17.2982 16.267 17.1614 16.1302C17.0247 15.9935 16.8392 15.9167 16.6458 15.9167C16.4524 15.9167 16.267 15.9935 16.1302 16.1302C15.9935 16.267 15.9167 16.4524 15.9167 16.6458V18.8333C15.9167 19.4135 16.1471 19.9699 16.5574 20.3801C16.9676 20.7904 17.524 21.0208 18.1042 21.0208H18.8917C19.0604 22.0439 19.5871 22.9737 20.3777 23.6446C21.1683 24.3155 22.1714 24.6838 23.2083 24.6838C24.2452 24.6838 25.2484 24.3155 26.039 23.6446C26.8296 22.9737 27.3562 22.0439 27.525 21.0208H29.0417C29.2351 21.0208 29.4205 20.944 29.5573 20.8073C29.694 20.6705 29.7708 20.485 29.7708 20.2917C29.7708 20.0983 29.8477 19.9128 29.9844 19.7761C30.1211 19.6393 30.3066 19.5625 30.5 19.5625C30.6934 19.5625 30.8789 19.6393 31.0156 19.7761C31.1523 19.9128 31.2292 20.0983 31.2292 20.2917C31.2292 20.485 31.306 20.6705 31.4427 20.8073C31.5795 20.944 31.7649 21.0208 31.9583 21.0208H33.475C33.6438 22.0439 34.1704 22.9737 34.961 23.6446C35.7516 24.3155 36.7548 24.6838 37.7917 24.6838C38.8286 24.6838 39.8317 24.3155 40.6223 23.6446C41.4129 22.9737 41.9396 22.0439 42.1083 21.0208H42.8958C43.476 21.0208 44.0324 20.7904 44.4426 20.3801C44.8529 19.9699 45.0833 19.4135 45.0833 18.8333V16.6458C45.0833 16.4524 45.0065 16.267 44.8698 16.1302C44.733 15.9935 44.5476 15.9167 44.3542 15.9167C44.1608 15.9167 43.9753 15.9935 43.8386 16.1302C43.7018 16.267 43.625 16.4524 43.625 16.6458V18.8333C43.625 19.0267 43.5482 19.2122 43.4114 19.3489C43.2747 19.4857 43.0892 19.5625 42.8958 19.5625H42.1083ZM23.2083 17.375C23.7852 17.375 24.3491 17.546 24.8287 17.8665C25.3084 18.187 25.6822 18.6425 25.903 19.1755C26.1237 19.7084 26.1815 20.2949 26.069 20.8607C25.9564 21.4264 25.6786 21.9461 25.2707 22.354C24.8628 22.762 24.3431 23.0397 23.7773 23.1523C23.2116 23.2648 22.6251 23.2071 22.0922 22.9863C21.5592 22.7655 21.1037 22.3917 20.7832 21.9121C20.4627 21.4324 20.2917 20.8685 20.2917 20.2917C20.2917 19.5181 20.599 18.7762 21.1459 18.2293C21.6929 17.6823 22.4348 17.375 23.2083 17.375ZM37.7917 17.375C38.3685 17.375 38.9324 17.546 39.4121 17.8665C39.8917 18.187 40.2656 18.6425 40.4863 19.1755C40.7071 19.7084 40.7648 20.2949 40.6523 20.8607C40.5398 21.4264 40.262 21.9461 39.8541 22.354C39.4462 22.762 38.9265 23.0397 38.3607 23.1523C37.7949 23.2648 37.2085 23.2071 36.6755 22.9863C36.1426 22.7655 35.687 22.3917 35.3665 21.9121C35.0461 21.4324 34.875 20.8685 34.875 20.2917C34.875 19.5181 35.1823 18.7762 35.7293 18.2293C36.2763 17.6823 37.0181 17.375 37.7917 17.375Z" fill="white"/>
</svg>
