<svg width="60" height="60" viewBox="0 0 60 60" fill="none" xmlns="http://www.w3.org/2000/svg">
<circle cx="30" cy="30" r="29.5" stroke="white"/>
<path d="M42.3438 26.6603C42.2402 26.6603 42.1408 26.7015 42.0675 26.7747C41.9943 26.848 41.9531 26.9473 41.9531 27.0509V40.1175C41.6769 40.4419 39.4809 41.0453 35.4084 41.0453C31.3359 41.0453 29.1397 40.4419 28.8638 40.1175V25.8178C30.6284 26.6181 34.8191 26.6475 35.4084 26.6475C36.9678 26.648 38.5252 26.5382 40.0691 26.3191C39.4016 27.2566 38.5066 28.7703 38.6975 29.9478C38.8206 30.7106 38.5197 31.5331 38.0269 31.7809C37.4644 32.0622 36.8066 31.5169 36.4644 31.1656C35.7728 30.386 34.8076 29.9028 33.7691 29.8162C33.1052 29.7808 32.4774 29.5028 32.005 29.035C31.6313 28.6578 31.3815 28.1756 31.2891 27.6528C31.2786 27.6026 31.2583 27.5549 31.2294 27.5125C31.2005 27.4701 31.1635 27.4338 31.1206 27.4057C31.0776 27.3776 31.0296 27.3582 30.9792 27.3487C30.9288 27.3392 30.877 27.3397 30.8267 27.3502C30.7765 27.3606 30.7288 27.3809 30.6864 27.4098C30.644 27.4387 30.6077 27.4757 30.5796 27.5186C30.5515 27.5616 30.5322 27.6096 30.5226 27.66C30.5131 27.7105 30.5136 27.7623 30.5241 27.8125C30.6473 28.4892 30.9744 29.1121 31.4616 29.5978C32.0492 30.1823 32.8283 30.5346 33.6553 30.5897C34.5237 30.6527 35.3322 31.0558 35.9053 31.7112C36.6109 32.4362 37.2225 32.6419 37.6894 32.6419C37.9286 32.6424 38.1646 32.5867 38.3784 32.4794C39.1797 32.0766 39.6488 30.935 39.4694 29.8231C39.2881 28.6981 40.6334 26.8047 41.2488 26.0666C42.1209 25.8219 42.735 25.4744 42.735 24.98C42.735 23.3594 36.1591 23.3128 35.4091 23.3128C34.8534 23.3128 31.0991 23.3394 29.1903 24.0122C29.4614 23.2254 29.6926 22.4254 29.8831 21.6153C30.3313 19.6466 30.2269 18.5434 29.5669 18.2437C28.8794 17.9334 27.9378 18.645 26.6863 20.4212C26.6266 20.5059 26.603 20.6109 26.6207 20.713C26.6384 20.8151 26.6959 20.9059 26.7806 20.9656C26.8653 21.0253 26.9703 21.0489 27.0724 21.0312C27.1745 21.0135 27.2653 20.9559 27.325 20.8712C28.5275 19.1644 29.1484 18.9247 29.2438 18.9553C29.6631 19.2172 29.2575 22.4241 27.0172 27.3691C26.286 29.0157 25.4293 30.6037 24.4547 32.1191C23.7532 31.9567 23.0918 31.6541 22.5103 31.2294C22.6041 30.8875 22.7125 30.525 22.8378 30.1378C23.1712 30.3765 23.5271 30.5821 23.9003 30.7519C23.9472 30.7742 23.9981 30.7869 24.0499 30.7894C24.1018 30.7918 24.1537 30.7839 24.2024 30.766C24.2512 30.7482 24.2959 30.7208 24.334 30.6855C24.372 30.6502 24.4027 30.6076 24.4241 30.5603C24.4455 30.513 24.4573 30.4619 24.4587 30.41C24.4602 30.3581 24.4512 30.3064 24.4325 30.258C24.4137 30.2096 24.3855 30.1654 24.3494 30.128C24.3134 30.0906 24.2702 30.0608 24.2225 30.0403C23.823 29.8591 23.4467 29.6307 23.1016 29.36C23.4388 28.4044 23.8609 27.3412 24.3881 26.1778C24.9619 24.9037 25.6032 23.6611 26.3094 22.4553C26.3368 22.4111 26.3551 22.3619 26.3632 22.3106C26.3713 22.2593 26.3692 22.2068 26.3568 22.1563C26.3444 22.1059 26.322 22.0584 26.2911 22.0166C26.2601 21.9749 26.2211 21.9398 26.1763 21.9133C26.1316 21.8868 26.0821 21.8695 26.0306 21.8625C25.9791 21.8554 25.9267 21.8587 25.8765 21.8721C25.8263 21.8855 25.7792 21.9088 25.7381 21.9407C25.6971 21.9725 25.6627 22.0122 25.6372 22.0575C24.9168 23.2878 24.2625 24.5556 23.6772 25.8556C23.2459 26.8075 22.7353 28.0531 22.2947 29.3278C22.2817 29.3547 22.2719 29.383 22.2656 29.4122C22.0534 30.0306 21.8594 30.6541 21.6988 31.2534C21.6894 31.2779 21.6826 31.3032 21.6784 31.3291C21.3644 32.5216 21.1909 33.6103 21.2928 34.3578C20.8733 34.3154 20.4496 34.3696 20.0543 34.5165C19.6591 34.6633 19.3027 34.8987 19.0126 35.2047C18.7225 35.5107 18.5064 35.8792 18.3808 36.2817C18.2553 36.6842 18.2237 37.1102 18.2884 37.5269C18.6009 40.2856 17.46 41.0681 17.4538 41.0725C17.3834 41.1151 17.3283 41.1788 17.2963 41.2546C17.2643 41.3304 17.257 41.4143 17.2755 41.4944C17.294 41.5746 17.3373 41.6468 17.3993 41.7009C17.4613 41.755 17.5387 41.7881 17.6206 41.7956C17.8475 41.8162 18.0656 41.8269 18.2769 41.8269C22.1181 41.8269 23.4241 38.5434 23.5394 38.2312C23.7735 37.7074 23.8384 37.1236 23.7249 36.5612C23.6114 35.9987 23.3252 35.4858 22.9063 35.0937C23.5366 34.6778 24.2419 33.8287 24.9328 32.8041C24.952 32.7816 24.9685 32.7569 24.9819 32.7306C26.0234 31.1228 26.942 29.4387 27.7297 27.6925C27.8509 27.425 27.9684 27.1585 28.0822 26.8931V40.1591C28.0822 41.78 34.6584 41.8266 35.4081 41.8266C36.1578 41.8266 42.7341 41.78 42.7341 40.1591V27.0509C42.7341 26.9474 42.693 26.8481 42.6198 26.7748C42.5466 26.7016 42.4473 26.6604 42.3438 26.6603ZM22.8213 37.9222C22.8159 37.9344 22.8109 37.9469 22.8066 37.9594C22.7959 37.9906 21.7806 40.9087 18.4981 41.04C18.8894 40.4106 19.2763 39.2934 19.0644 37.4344C19.0644 37.4281 19.0644 37.4225 19.0619 37.4166C19.0132 37.1116 19.0366 36.7996 19.13 36.5053C19.2235 36.211 19.3844 35.9426 19.6001 35.7216C19.8157 35.5006 20.08 35.3331 20.3719 35.2324C20.6638 35.1318 20.9753 35.1008 21.2813 35.1419C21.5873 35.183 21.8795 35.2952 22.1344 35.4693C22.3894 35.6435 22.6001 35.8749 22.7497 36.145C22.8994 36.4151 22.9838 36.7164 22.9962 37.0249C23.0086 37.3335 22.9487 37.6409 22.8213 37.9222ZM22.1625 34.5916C21.9481 34.4578 21.9516 33.5506 22.3031 32.0394C22.8233 32.3771 23.3915 32.6344 23.9884 32.8025C23.0841 34.0647 22.4044 34.6659 22.1625 34.5916ZM41.9091 24.98C41.6101 25.158 41.2822 25.2823 40.9403 25.3472L40.9181 25.3525C39.8625 25.6166 38.0241 25.8659 35.4069 25.8659C31.5025 25.8659 29.3225 25.3116 28.9069 24.98C29.3234 24.6484 31.5034 24.0941 35.4069 24.0941C39.3103 24.0941 41.4925 24.6484 41.9091 24.98Z" fill="white"/>
</svg>
