<svg width="92" height="92" viewBox="0 0 92 92" fill="none" xmlns="http://www.w3.org/2000/svg">
<circle cx="46" cy="46" r="45.5" stroke="white"/>
<g clip-path="url(#clip0_144_16)">
<path d="M68.9969 62.9274L68.966 62.2204C68.9502 61.8591 68.6424 61.5796 68.2833 61.5951C67.9222 61.6109 67.6422 61.9165 67.658 62.2777L67.6892 62.9904C67.6895 62.9947 67.6896 62.999 67.6899 63.0033C67.6984 63.135 67.6533 63.2605 67.5631 63.3567C67.4734 63.4523 67.3519 63.5049 67.2211 63.5049H63.3912V51.421L64.3786 51.7699C66.0802 52.3713 67.2543 53.9242 67.3716 55.7277L67.4801 58.2105C67.4959 58.5717 67.801 58.8523 68.1627 58.8358C68.5239 58.82 68.8039 58.5144 68.7881 58.1533L68.6793 55.6639C68.679 55.6595 68.6788 55.6552 68.6786 55.6509C68.5302 53.3206 67.0137 51.3126 64.8148 50.5357L62.9865 49.8895C62.9757 49.885 62.9657 49.8793 62.9547 49.8754L57.4943 47.9456C57.4934 47.9452 57.4924 47.9448 57.4916 47.9446C57.4712 47.9376 57.4511 47.9316 57.4306 47.9263C57.4203 47.9235 57.4099 47.9217 57.3996 47.9195C57.0382 47.826 56.6467 47.9299 56.3804 48.1967L56.2115 48.3658L54.7707 47.6425L54.7705 46.3795C55.2059 46.0798 55.616 45.7223 55.9883 45.3234C55.9927 45.3186 55.9971 45.3139 56.0015 45.3092C56.9417 44.2966 57.6357 43.0219 57.8718 41.7555C57.8781 41.7221 57.8843 41.6886 57.8899 41.6551C57.8958 41.6205 57.9012 41.5859 57.9064 41.5513C57.915 41.4934 57.9225 41.4356 57.9292 41.378C57.9308 41.3641 57.9329 41.3502 57.9343 41.3364C57.9409 41.2737 57.9466 41.211 57.9508 41.1487H58.2225C59.0663 41.1487 59.7528 40.4622 59.7528 39.6184V37.9032C59.7528 37.822 59.7457 37.7416 59.7331 37.6622C59.8296 37.4869 59.8851 37.2855 59.8851 37.0708V36.3395C59.8851 35.7835 59.5156 35.3133 59.0122 35.1679V35.0647C59.0122 35.0023 59.0114 34.9399 59.0099 34.8779C58.9656 33.1324 58.2802 31.4788 57.0802 30.222C55.9854 29.0755 54.5534 28.3497 53.0111 28.1516C52.9876 28.1094 52.9621 28.0686 52.9356 28.0285C52.9287 28.0183 52.9215 28.0084 52.9145 27.9982C52.8878 27.9594 52.8596 27.9218 52.8301 27.8853C52.8249 27.8789 52.8199 27.8724 52.8147 27.8661C52.7782 27.8221 52.74 27.7799 52.6997 27.7396C52.6984 27.7382 52.6969 27.737 52.6955 27.7355C52.6563 27.6965 52.6154 27.6595 52.573 27.6241C52.5682 27.6202 52.5635 27.6161 52.5588 27.6122C52.4714 27.5406 52.3777 27.4773 52.2788 27.4224C52.2699 27.4175 52.2611 27.4125 52.2521 27.4077C52.203 27.3814 52.1529 27.3568 52.1015 27.335C52.0989 27.3339 52.0961 27.333 52.0934 27.3319C52.0458 27.3119 51.9971 27.2945 51.9478 27.2785C51.9344 27.2741 51.921 27.2699 51.9075 27.2658C51.8551 27.2502 51.8023 27.2359 51.7483 27.2248C51.7452 27.2241 51.7422 27.2238 51.7391 27.2232C51.6875 27.2128 51.635 27.2053 51.582 27.1992C51.5674 27.1974 51.5529 27.196 51.5382 27.1947C51.4818 27.1895 51.425 27.186 51.3675 27.186H50.7497C50.6922 27.186 50.6354 27.1895 50.579 27.1947C50.5642 27.196 50.5497 27.1975 50.5351 27.1992C50.4823 27.2052 50.4299 27.2128 50.3783 27.2231C50.3752 27.2238 50.372 27.2241 50.3689 27.2248C50.315 27.2359 50.2621 27.2501 50.2098 27.2657C50.1962 27.2698 50.1827 27.2741 50.1693 27.2785C50.12 27.2945 50.0714 27.3119 50.0239 27.3318C50.0212 27.3329 50.0183 27.3338 50.0156 27.335C49.9642 27.3568 49.9142 27.3814 49.8651 27.4076C49.856 27.4124 49.847 27.4175 49.838 27.4224C49.79 27.449 49.743 27.4772 49.6975 27.5079C49.6974 27.5079 49.6972 27.508 49.6971 27.5081C49.6492 27.5405 49.6031 27.5754 49.5582 27.6121C49.5534 27.616 49.5486 27.6202 49.5439 27.6242C49.5016 27.6595 49.4607 27.6964 49.4216 27.7353C49.4202 27.7368 49.4186 27.7381 49.4172 27.7396C49.377 27.7798 49.3388 27.822 49.3024 27.8659C49.2971 27.8723 49.292 27.8788 49.2868 27.8853C49.2574 27.9217 49.2292 27.9593 49.2025 27.998C49.1955 28.0082 49.1882 28.0181 49.1813 28.0284C49.1548 28.0684 49.1293 28.1093 49.1058 28.1515C47.5636 28.3496 46.1315 29.0755 45.0368 30.2218C44.4521 30.8342 43.9906 31.5413 43.6648 32.3069L39.8732 28.7549C39.0949 28.0259 37.8773 28.0275 37.1012 28.7588L32.9881 32.6334L32.9874 32.1804C32.9871 31.9207 32.8856 31.6768 32.7017 31.4935C32.5182 31.3105 32.2746 31.2098 32.0155 31.2098C32.015 31.2098 32.0145 31.2098 32.0141 31.2098L28.9306 31.2141C28.3948 31.2149 27.9593 31.6515 27.9599 32.1876L27.9684 37.3621L23.6362 41.4432C23.2426 41.814 23.017 42.3158 23.0009 42.8563C22.9848 43.3968 23.1802 43.9111 23.5509 44.3045C23.9216 44.6981 24.4233 44.9237 24.9638 44.9399C24.9846 44.9405 25.0052 44.9408 25.0257 44.9408C25.5435 44.9408 26.0338 44.7465 26.4122 44.3899L27.8793 43.0078L27.8856 47.5971C27.8862 47.9583 28.1791 48.2508 28.5402 48.2508C28.5405 48.2508 28.5409 48.2508 28.5411 48.2508C28.9027 48.2502 29.1954 47.9568 29.1948 47.5953L29.1867 41.7762L38.4929 33.0094L42.2316 36.5118V37.0708C42.2316 37.1087 42.2339 37.1462 42.2373 37.1835C42.2379 37.1904 42.2385 37.1973 42.2393 37.2043C42.2567 37.3679 42.3056 37.5238 42.3833 37.6644C42.3709 37.743 42.364 37.8227 42.364 37.9031V39.6183C42.364 40.4621 43.0505 41.1486 43.8944 41.1486H44.1652C44.1694 41.2133 44.1752 41.2781 44.182 41.3433C44.1839 41.3616 44.1865 41.38 44.1886 41.3984C44.1949 41.4524 44.2019 41.5064 44.2099 41.5607C44.2147 41.5932 44.2197 41.6258 44.2251 41.6584C44.2316 41.6971 44.2389 41.736 44.2461 41.7748C44.2612 41.8552 44.2782 41.9357 44.297 42.0161C44.3004 42.0309 44.3035 42.0456 44.3071 42.0603C44.3202 42.1143 44.3343 42.1682 44.3489 42.2221C44.3519 42.2329 44.3548 42.2438 44.3579 42.2546C44.4744 42.675 44.6385 43.0925 44.8426 43.4975C44.8448 43.5018 44.8469 43.5061 44.8492 43.5104C44.9307 43.6716 45.0186 43.8305 45.1124 43.9869C45.1248 44.0076 45.137 44.0283 45.1496 44.0488C45.1749 44.0903 45.2006 44.1315 45.2268 44.1725C45.2465 44.2035 45.2667 44.2343 45.2869 44.265C45.3096 44.2996 45.3321 44.3344 45.3553 44.3687C45.3969 44.4299 45.4394 44.4904 45.4827 44.5506C45.5012 44.5763 45.5202 44.6016 45.539 44.6271C45.5712 44.6708 45.6039 44.7143 45.6372 44.7574C45.6553 44.781 45.6734 44.8045 45.6917 44.8278C45.7369 44.8852 45.7829 44.9422 45.8297 44.9984C45.8365 45.0065 45.8429 45.0147 45.8497 45.0227C45.9011 45.084 45.9538 45.1443 46.0072 45.2041C46.0259 45.2253 46.045 45.246 46.0639 45.2669C46.1015 45.3081 46.1395 45.349 46.178 45.3894C46.1992 45.4118 46.2204 45.4342 46.2418 45.4563C46.288 45.5038 46.3348 45.5506 46.3821 45.5969C46.4161 45.6302 46.4507 45.6628 46.4854 45.6954C46.5144 45.7227 46.5434 45.7501 46.5729 45.777C46.6086 45.8096 46.6446 45.8416 46.6808 45.8734C46.7 45.8903 46.7194 45.907 46.7388 45.9236C46.9346 46.0923 47.1374 46.2492 47.3461 46.393L47.3459 47.6422L45.9055 48.3657L45.7365 48.1963C45.5746 48.0341 45.3664 47.9321 45.1469 47.8978C45.1226 47.8941 45.098 47.8911 45.0734 47.8889C45.0488 47.8869 45.0241 47.8855 44.9993 47.8852C44.9746 47.8848 44.9497 47.8853 44.925 47.8866C44.8571 47.8903 44.7892 47.901 44.7223 47.918C44.7095 47.9207 44.6967 47.9232 44.6839 47.9266C44.664 47.9318 44.6401 47.9389 44.6225 47.9452L42.1646 48.8139L42.1582 44.1578C42.1573 43.5575 41.6687 43.0698 41.0686 43.0698C41.0681 43.0698 41.0676 43.0698 41.0671 43.0698L35.9469 43.077C35.6559 43.0774 35.3824 43.1911 35.1769 43.3972C34.9715 43.6032 34.8584 43.8771 34.8589 44.1681L34.8701 52.1804C34.8692 52.1815 34.8683 52.1826 34.8673 52.1837C34.8496 52.2038 34.8328 52.2246 34.8154 52.245C34.7875 52.2776 34.7595 52.3101 34.7324 52.3434C34.7153 52.3643 34.699 52.3859 34.6823 52.4071C34.6558 52.4405 34.6291 52.4738 34.6035 52.5078C34.587 52.5296 34.5714 52.5519 34.5552 52.574C34.5301 52.6081 34.5047 52.6421 34.4804 52.6768C34.4646 52.6992 34.4498 52.7222 34.4345 52.7447C34.4106 52.7797 34.3866 52.8146 34.3635 52.85C34.3485 52.8731 34.3343 52.8968 34.3196 52.9202C34.2972 52.9559 34.2744 52.9915 34.2528 53.0277C34.2387 53.0512 34.2255 53.0753 34.2116 53.099C34.1904 53.1357 34.1689 53.1721 34.1484 53.2092C34.1349 53.2338 34.1222 53.2587 34.1091 53.2835C34.0895 53.3205 34.0696 53.3571 34.0507 53.3945C34.0375 53.4206 34.0253 53.4472 34.0125 53.4736C33.9947 53.5101 33.9766 53.5465 33.9595 53.5835C33.9471 53.6106 33.9356 53.6381 33.9235 53.6654C33.9073 53.7023 33.8906 53.739 33.8751 53.7762C33.8634 53.8043 33.8526 53.8328 33.8414 53.8611C33.8267 53.8981 33.8116 53.9348 33.7976 53.9721C33.7867 54.0014 33.7767 54.031 33.7662 54.0605C33.7531 54.0974 33.7395 54.1342 33.727 54.1714C33.717 54.2015 33.7079 54.232 33.6984 54.2623C33.6867 54.2993 33.6746 54.3361 33.6636 54.3735C33.6545 54.4045 33.6464 54.4359 33.6378 54.4671C33.6276 54.5042 33.6169 54.5413 33.6074 54.5787C33.5994 54.6102 33.5923 54.6421 33.5849 54.6738C33.576 54.7113 33.5667 54.7488 33.5585 54.7866C33.5515 54.8191 33.5455 54.852 33.5391 54.8847C33.5317 54.9221 33.5239 54.9593 33.5171 54.9969C33.5111 55.0308 33.5062 55.0651 33.5008 55.0991C33.495 55.1358 33.4886 55.1725 33.4835 55.2094C33.4785 55.2445 33.4747 55.2798 33.4705 55.3149C33.4661 55.3514 33.4612 55.3877 33.4574 55.4243C33.4537 55.46 33.4512 55.4959 33.4482 55.5318C33.4455 55.5652 33.4419 55.5985 33.4397 55.6321L29.2329 55.6379C29.2181 55.6379 29.2062 55.6259 29.2062 55.6112L29.2007 51.6626C29.2001 51.3013 28.9073 51.0089 28.5461 51.0089C28.5458 51.0089 28.5455 51.0089 28.5452 51.0089C28.1837 51.0094 27.8909 51.3028 27.8915 51.6644L27.897 55.6131C27.898 56.3491 28.4971 56.9471 29.2329 56.9471C29.2335 56.9471 29.2341 56.9471 29.2346 56.9471L33.3819 56.9414L33.1201 62.9274C33.0911 63.4142 33.2656 63.8969 33.5993 64.2525C33.9341 64.6094 34.4068 64.814 34.8959 64.814H67.2211C67.7102 64.814 68.1828 64.6094 68.5176 64.2525C68.8514 63.8969 69.0259 63.4142 68.9969 62.9274ZM58.4436 39.6183C58.4436 39.7402 58.3444 39.8394 58.2225 39.8394H57.9611V38.2887H58.4436V39.6183ZM50.1921 28.9339C50.1927 28.9315 50.1938 28.9294 50.1944 28.927C50.2185 28.8331 50.2651 28.7497 50.3273 28.6818C50.3288 28.6801 50.3304 28.6783 50.3319 28.6767C50.3516 28.6557 50.3729 28.6363 50.3954 28.6185C50.398 28.6164 50.4008 28.6145 50.4035 28.6125C50.4491 28.5778 50.4999 28.5501 50.5543 28.5303C50.5585 28.5288 50.5625 28.5271 50.5667 28.5258C50.5928 28.517 50.6197 28.5101 50.6473 28.505C50.6523 28.5041 50.6573 28.5035 50.6622 28.5028C50.6909 28.4984 50.7199 28.4954 50.7496 28.4954H51.3674C51.3971 28.4954 51.4262 28.4984 51.4548 28.5028C51.4597 28.5035 51.4647 28.5041 51.4697 28.505C51.4972 28.5101 51.5241 28.5169 51.5503 28.5258C51.5545 28.5272 51.5586 28.5288 51.5628 28.5304C51.6171 28.5501 51.6678 28.5778 51.7133 28.6124C51.7161 28.6145 51.719 28.6165 51.7217 28.6186C51.7441 28.6363 51.7653 28.6556 51.7849 28.6765C51.7866 28.6783 51.7882 28.6801 51.7898 28.6819C51.8519 28.7499 51.8984 28.8331 51.9225 28.9269C51.9231 28.9293 51.9242 28.9313 51.9248 28.9337C51.9355 28.9773 51.9418 29.0228 51.9418 29.0697V31.2785C51.9418 31.5952 51.6841 31.8529 51.3675 31.8529H50.7497C50.433 31.8529 50.1753 31.5952 50.1753 31.2785V29.0697C50.1753 29.0228 50.1815 28.9775 50.1921 28.9339ZM31.6788 32.5194L31.6809 33.8647L29.2755 36.1307L29.2697 32.5228L31.6788 32.5194ZM43.2256 33.765C43.2131 33.8322 43.2009 33.8994 43.1903 33.9672C43.1844 34.0051 43.1795 34.043 43.1742 34.081C43.1656 34.1427 43.1568 34.2044 43.1498 34.2665C43.1438 34.3185 43.1397 34.3706 43.1349 34.4227C43.1305 34.4717 43.1252 34.5204 43.1218 34.5695C43.1146 34.6723 43.1095 34.7751 43.1069 34.8779C43.1053 34.94 43.1045 35.0024 43.1045 35.0648V35.1679C43.1031 35.1683 43.102 35.1689 43.1006 35.1693C43.0608 35.181 43.0222 35.1953 42.9842 35.2108C42.9719 35.2158 42.9597 35.221 42.9476 35.2264C42.9141 35.2415 42.8812 35.2578 42.8494 35.2759C42.8447 35.2785 42.8396 35.2804 42.835 35.2831L38.9391 31.6336C38.6869 31.3974 38.2943 31.3977 38.0428 31.6348L25.5145 43.4371C25.3755 43.5681 25.1948 43.6378 25.0028 43.6314C24.8119 43.6257 24.6347 43.546 24.5037 43.407C24.3727 43.268 24.3037 43.0863 24.3094 42.8954C24.3152 42.7045 24.3948 42.5272 24.5338 42.3963L37.9988 29.7116C38.1362 29.5823 38.3127 29.5175 38.4891 29.5175C38.6649 29.5175 38.8408 29.5817 38.978 29.7103L43.237 33.6999C43.2327 33.7216 43.2296 33.7434 43.2256 33.765ZM43.8944 39.8395C43.7724 39.8395 43.6732 39.7403 43.6732 39.6184V38.2888H44.1557V39.8395H43.8944ZM43.5409 36.7759V36.4307H43.7592C44.1207 36.4307 44.4138 36.1376 44.4138 35.7761V35.0646C44.4138 35.0133 44.4144 34.9622 44.4158 34.9111C44.4183 34.8114 44.424 34.7115 44.4318 34.6118C44.4338 34.5864 44.4367 34.5611 44.439 34.5357C44.446 34.4589 44.4542 34.3822 44.4644 34.3055C44.4677 34.2806 44.4713 34.2557 44.475 34.2307C44.4868 34.1497 44.5002 34.0689 44.5155 33.9884C44.5189 33.9703 44.5221 33.9523 44.5256 33.9342C44.5453 33.8356 44.5671 33.7373 44.5919 33.6396C44.592 33.6391 44.5921 33.6385 44.5922 33.638C44.8316 32.7001 45.3065 31.8349 45.9835 31.1258C46.7726 30.2994 47.7766 29.7435 48.8659 29.5184V31.2782C48.8659 32.3168 49.7109 33.1616 50.7495 33.1616H51.3673C52.4059 33.1616 53.2508 32.3167 53.2508 31.2782V29.5186C54.34 29.7437 55.3442 30.2996 56.1333 31.126C57.1083 32.147 57.6651 33.4913 57.7012 34.9112C57.7024 34.9622 57.703 35.0133 57.703 35.0646V35.7761C57.703 36.1376 57.9961 36.4307 58.3576 36.4307H58.576V36.7759H43.5409ZM45.4897 41.2569C45.4885 41.2468 45.4874 41.2367 45.4862 41.2266C45.4803 41.1717 45.4756 41.1171 45.4721 41.0626C45.4716 41.0539 45.4709 41.0452 45.4703 41.0365C45.4668 40.9737 45.4649 40.9111 45.4649 40.8491V38.2888H56.6519V40.8354C56.6519 40.8981 56.6499 40.9614 56.6463 41.0248C56.6459 41.0321 56.6452 41.0393 56.6448 41.0466C56.6413 41.1023 56.6365 41.1583 56.6304 41.2144C56.6293 41.2243 56.6282 41.2342 56.6271 41.2441C56.6199 41.3056 56.6114 41.3674 56.6012 41.4294C56.6011 41.4297 56.6011 41.43 56.601 41.4303C56.3689 42.8306 55.367 44.3252 54.139 45.221C54.1302 45.2274 54.1214 45.234 54.1126 45.2403C54.0737 45.2683 54.0344 45.2952 53.995 45.3219C53.9734 45.3366 53.952 45.3518 53.9302 45.366C53.9187 45.3736 53.9071 45.3806 53.8955 45.3881C53.8557 45.4138 53.8157 45.4395 53.7752 45.4642C53.7732 45.4654 53.7714 45.467 53.7693 45.4683C53.4044 45.6902 53.0251 45.8569 52.6446 45.9516L52.5761 45.9686C51.1797 46.3159 50.8592 46.3151 49.4577 45.9617C49.0807 45.8667 48.7051 45.7007 48.3435 45.4802C48.3427 45.4797 48.3419 45.4791 48.3411 45.4786C48.3267 45.4698 48.3126 45.4604 48.2981 45.4514C48.2553 45.4247 48.2127 45.3978 48.1703 45.3697C48.1598 45.3628 48.1495 45.3554 48.1391 45.3484C46.7836 44.4318 45.6664 42.7686 45.4897 41.2569ZM47.9885 48.7848C48.3899 48.6324 48.6552 48.2517 48.6552 47.8173L48.6553 47.0817C48.8149 47.1403 48.9759 47.1903 49.1378 47.2312C49.9419 47.4339 50.4836 47.5351 51.0262 47.5351C51.5626 47.5351 52.0998 47.4362 52.8923 47.2392L52.9607 47.2221C53.1288 47.1803 53.2958 47.1283 53.4615 47.0675L53.4616 47.8173C53.4616 48.2517 53.7268 48.6326 54.1283 48.7849L55.1773 49.3114C55.1647 49.3211 55.1524 49.3312 55.1398 49.3407C55.111 49.3624 55.0817 49.3833 55.0525 49.4045C54.9974 49.4445 54.942 49.4838 54.8858 49.522C54.8545 49.5433 54.823 49.5644 54.7913 49.5852C54.7341 49.6228 54.6762 49.6592 54.6179 49.695C54.5882 49.7132 54.5586 49.7318 54.5287 49.7496C54.4574 49.7918 54.3852 49.8325 54.3125 49.872C54.2954 49.8813 54.2786 49.8913 54.2613 49.9005C54.1712 49.9484 54.0799 49.9942 53.9876 50.038C53.9629 50.0498 53.9378 50.0605 53.9129 50.072C53.8448 50.1033 53.7762 50.134 53.7071 50.163C53.6739 50.177 53.6403 50.1902 53.6068 50.2037C53.5442 50.2288 53.4813 50.253 53.4179 50.2763C53.383 50.2891 53.3479 50.3018 53.3127 50.314C53.247 50.3368 53.1807 50.3584 53.1143 50.3792C53.0825 50.3892 53.0507 50.3996 53.0188 50.4092C52.9312 50.4352 52.8429 50.4595 52.7542 50.4819C52.7435 50.4846 52.733 50.4879 52.7223 50.4905C52.6224 50.5153 52.5217 50.5375 52.4204 50.5578C52.3914 50.5636 52.3621 50.5684 52.3329 50.5738C52.2602 50.5874 52.1873 50.6003 52.1139 50.6115C52.0777 50.6171 52.0414 50.622 52.0051 50.6269C51.9369 50.6363 51.8686 50.6446 51.7999 50.652C51.763 50.656 51.726 50.6598 51.6889 50.6632C51.6162 50.6698 51.5432 50.6749 51.4699 50.6792C51.4381 50.6811 51.4064 50.6835 51.3744 50.685C51.2694 50.6897 51.1641 50.6926 51.0583 50.6926C50.9524 50.6926 50.8471 50.6897 50.7421 50.685C50.7102 50.6835 50.6786 50.6811 50.6469 50.6792C50.5736 50.6749 50.5004 50.6698 50.4276 50.6632C50.3906 50.6599 50.3536 50.656 50.3168 50.6521C50.2481 50.6447 50.1796 50.6364 50.1113 50.627C50.0751 50.6221 50.0388 50.6171 50.0027 50.6116C49.9293 50.6003 49.8563 50.5875 49.7835 50.5738C49.7544 50.5684 49.7251 50.5636 49.6962 50.5579C49.5948 50.5375 49.4941 50.5154 49.3942 50.4905C49.3838 50.4879 49.3735 50.4847 49.3631 50.4821C49.2741 50.4596 49.1856 50.4352 49.0977 50.4091C49.0659 50.3996 49.0345 50.3892 49.0028 50.3793C48.9361 50.3584 48.8696 50.3367 48.8036 50.3138C48.7687 50.3017 48.7339 50.2891 48.6992 50.2765C48.6355 50.2531 48.5722 50.2287 48.5092 50.2034C48.4761 50.1901 48.4429 50.177 48.41 50.1632C48.34 50.1338 48.2709 50.1029 48.202 50.0712C48.1779 50.0601 48.1535 50.0497 48.1296 50.0383C48.0371 49.9944 47.9455 49.9484 47.855 49.9003C47.8388 49.8917 47.8231 49.8823 47.807 49.8736C47.7332 49.8335 47.6599 49.7923 47.5876 49.7494C47.5582 49.732 47.5293 49.7139 47.5002 49.696C47.4412 49.6598 47.3825 49.6228 47.3245 49.5848C47.2935 49.5644 47.2628 49.5438 47.2322 49.5229C47.1752 49.4842 47.1189 49.4443 47.063 49.4037C47.0345 49.3831 47.006 49.3627 46.9778 49.3415C46.965 49.3319 46.9525 49.3215 46.9397 49.3118L47.9885 48.7848ZM34.8959 63.5048C34.7651 63.5048 34.6436 63.4522 34.5539 63.3566C34.4637 63.2604 34.4186 63.1349 34.427 63.0032C34.4273 62.9989 34.4275 62.9946 34.4277 62.9903L34.7453 55.7278C34.8154 54.6496 35.2636 53.661 35.9762 52.9116C35.983 52.9051 35.9902 52.8991 35.9968 52.8923C36.4159 52.4567 36.9244 52.1075 37.4796 51.8711C37.4912 51.8662 37.5029 51.8613 37.5146 51.8565C37.5884 51.8258 37.6629 51.7966 37.7382 51.7699L38.7257 51.421V63.5048H34.8959ZM39.1305 49.8894L37.3021 50.5357C37.2335 50.5599 37.1655 50.5853 37.0983 50.6119C37.0769 50.6204 37.0561 50.6297 37.0349 50.6384C37.0183 50.6452 37.0017 50.6521 36.9852 50.6591C36.9564 50.6712 36.9272 50.6827 36.8986 50.6953C36.8671 50.7092 36.8363 50.7242 36.805 50.7385C36.771 50.7542 36.7367 50.7693 36.7032 50.7855C36.6716 50.8009 36.6406 50.8172 36.6093 50.833C36.5769 50.8495 36.544 50.8654 36.5119 50.8825C36.4824 50.8981 36.4536 50.9148 36.4244 50.9309C36.3913 50.9492 36.3579 50.967 36.3252 50.9859C36.2965 51.0025 36.2684 51.0202 36.24 51.0373C36.2192 51.0497 36.1984 51.0621 36.1778 51.0747L36.1684 44.3861L40.8494 44.3796L40.8562 49.2767L39.1622 49.8753C39.1512 49.8792 39.1412 49.8849 39.1305 49.8894ZM40.0349 63.5048V50.9583L44.3654 49.4278L44.8664 51.887C45.0538 52.8068 45.6171 53.6211 46.4115 54.121L50.4038 56.633V63.5048H40.0349ZM47.1088 53.0129C46.6154 52.7025 46.2657 52.1968 46.1493 51.6256L45.84 50.1072C45.8644 50.1278 45.8879 50.1497 45.9126 50.1699C47.3562 51.3564 49.1554 52.0016 51.0585 52.0016C51.5858 52.0016 52.1049 51.9511 52.6109 51.8542C53.9623 51.5955 55.2179 50.9988 56.277 50.1072L55.9676 51.6256C55.8514 52.1968 55.5017 52.7024 55.0083 53.0128L51.0585 55.4981L47.1088 53.0129ZM62.082 63.5048H51.7131V56.6331L55.7054 54.1211C56.5 53.6211 57.0632 52.8068 57.2504 51.8871L57.7516 49.4278L62.082 50.9583V63.5048Z" fill="white"/>
</g>
<defs>
<clipPath id="clip0_144_16">
<rect width="46" height="46" fill="white" transform="translate(23 23)"/>
</clipPath>
</defs>
</svg>
